<?xml version="1.0" encoding="utf-8"?>
<!-- Generator: Adobe Illustrator 25.0.0, SVG Export Plug-In . SVG Version: 6.00 Build 0)  -->
<svg version="1.1" id="Layer_1" xmlns="http://www.w3.org/2000/svg" xmlns:xlink="http://www.w3.org/1999/xlink" x="0px" y="0px"
	 viewBox="0 0 619 130" style="enable-background:new 0 0 619 130;" xml:space="preserve">
<style type="text/css">
	.st0{fill:#0080CD;}
</style>
<g>
	<path class="st0" d="M437.3,85.4l1.1,0c16-0.6,28.7-13.7,28.7-29.9c0-16.5-13.4-29.9-29.9-29.9c-16.5,0-29.9,13.4-29.9,29.9v29.9
		h28.8L437.3,85.4z M391.6,55.5L391.6,55.5c0-25.2,20.4-45.7,45.7-45.7c25.2,0,45.7,20.5,45.7,45.7c0,25.2-20.5,45.7-45.7,45.7
		h-30.4v8.2c0,5.1-6.4,10.8-15.3,10.8v-10.3l0.1-1V80.6c0,0.5,0,1-0.1,1.5v-2.7c0-0.7,0-1.4,0.1-2V58.1
		C391.6,57.3,391.6,56.4,391.6,55.5"/>
	<path class="st0" d="M24.4,55.5c0,16.5,13.4,29.9,29.9,29.9c16.5,0,29.9-13.4,29.9-29.9c0-16.5-13.4-29.9-29.9-29.9
		C37.8,25.6,24.4,39,24.4,55.5 M8.6,55.5L8.6,55.5C8.6,30.3,29,9.8,54.3,9.8c25.3,0,45.7,20.5,45.7,45.7c0,25.2-20.5,45.7-45.7,45.7
		C29,101.2,8.6,80.7,8.6,55.5"/>
	<path class="st0" d="M110.3,10.6v46c0,18.8,19.5,43.6,39.3,43.6h32.7c0-6.9-7.1-15.1-12.3-15.1h-18.8c-9.1,0-25.6-14.1-25.6-28
		V21.3C125.6,16.2,119.2,10.6,110.3,10.6"/>
	<path class="st0" d="M202.8,9.8c-8.9,0-15.3,5.6-15.3,10.7v32.6c-0.1,0.7-0.1,1.4-0.1,2v2.7c0.1-0.5,0.1-1.1,0.1-1.6V88l-0.1,13.2
		c8.9,0,15.4-5.6,15.4-10.8V57.9c0-0.7,0-1.4,0-2v-2.7c0,0.5,0,1.1,0,1.6V24l0-1V9.8z"/>
	<path class="st0" d="M213.4,100.2v-46c0-18.8,19.5-43.6,39.2-43.6h3.5h5.7h5c12.2,0,24.2,9.4,31.7,21c7.5-11.6,19.6-21,31.7-21h4.9
		h2.3h4.5c19.7,0,39.2,24.8,39.2,43.6v46c-8.9,0-15.3-5.6-15.3-10.7V53.7c0-13.9-16.5-28-25.6-28h-8.5c-9.1,0-25.6,14.1-25.6,28
		v35.7c0,0.5-0.1,0.9-0.2,1.1v9.6c-8.9,0-15.3-5.6-15.3-10.7V53.7c0-13.9-16.5-28-25.6-28h-10.9c-9.1,0-25.6,14.1-25.6,28v35.7
		C228.7,94.6,222.3,100.2,213.4,100.2"/>
	<path class="st0" d="M493.3,10.6c8.9,0,15.3,5.6,15.3,10.7v32.6c0,0.7,0.1,1.4,0.1,2v2.7c0-0.5-0.1-1.1-0.1-1.6v31.7l0.1,13.2
		c-8.8,0-15.3-5.6-15.3-10.8V58.6c0-0.7-0.1-1.4-0.1-2v-2.7c0,0.5,0.1,1.1,0.1,1.6V24.8l-0.1-1V10.6z"/>
	<path class="st0" d="M564.7,85.4l1.1,0h28.7V55.5c0-16.5-13.4-29.9-29.9-29.9c-16.5,0-29.9,13.4-29.9,29.9
		c0,16.1,12.8,29.3,28.7,29.9L564.7,85.4z M610.4,55.5L610.4,55.5c0,0.9,0,1.8-0.1,2.6v19.3c0.1,0.7,0.1,1.3,0.1,2v2.7
		c0-0.5-0.1-1-0.1-1.5v20.6h-15.2h-9.2h-21.2c-25.2,0-45.7-20.5-45.7-45.7c0-25.2,20.5-45.7,45.7-45.7
		C590,9.8,610.4,30.3,610.4,55.5"/>
</g>
</svg>
