<?xml version="1.0" encoding="utf-8"?>
<!-- Generator: Adobe Illustrator 25.0.1, SVG Export Plug-In . SVG Version: 6.00 Build 0)  -->
<svg version="1.1" id="Layer_1" xmlns="http://www.w3.org/2000/svg" xmlns:xlink="http://www.w3.org/1999/xlink" x="0px" y="0px"
	 viewBox="0 0 858.1 395.1" style="enable-background:new 0 0 858.1 395.1;" xml:space="preserve">
<style type="text/css">
	.st0{fill:none;stroke:#000000;stroke-width:12;stroke-linecap:round;stroke-miterlimit:10;}
	.st1{fill:#D02027;}
	.st2{fill:#FFFFFF;}
	.st3{fill:#868686;}
	.st4{fill:#808080;}
	.st5{fill:none;stroke:#000000;stroke-width:8;stroke-linecap:round;stroke-miterlimit:10;}
	.st6{fill:#00B1D8;}
	.st7{fill:#FCD1B6;}
	.st8{fill-rule:evenodd;clip-rule:evenodd;fill:#FFFFFF;}
	.st9{fill-rule:evenodd;clip-rule:evenodd;fill:#F2F1F1;}
	.st10{fill-rule:evenodd;clip-rule:evenodd;fill:#F0635A;}
	.st11{fill-rule:evenodd;clip-rule:evenodd;fill:#EF5144;}
	.st12{clip-path:url(#SVGID_3_);fill:none;stroke:#FCD1BB;stroke-width:0.5;stroke-miterlimit:10;}
	.st13{clip-path:url(#SVGID_4_);fill:none;stroke:#FCD1BB;stroke-width:0.5;stroke-miterlimit:10;}
</style>
<g>
	<path class="st0" d="M508.2-534c0,0-34.5,0.1-46,0c-36-0.3-93,32.4-31.8,95.1c82.5,84.6,12.9,85-28.3,59.8"/>
	<path class="st1" d="M878.1-339.6H530.3c-18,0-32.7-14.6-32.7-32.7v-192.9c0-18,14.6-32.7,32.7-32.7h347.8
		c18,0,32.7,14.6,32.7,32.7v192.9C910.8-354.2,896.1-339.6,878.1-339.6"/>
	<polygon points="853.7,-369.5 556,-369.5 534.4,-391.2 534.4,-546.9 556,-567.8 853.7,-567.8 874,-546.9 874,-391.2 	"/>
	<path class="st2" d="M681.2-391h-98.6c-5.4,0-9.8-4.4-9.8-9.8v-135.6c0-5.4,4.4-9.8,9.8-9.8h98.6c5.4,0,9.8,4.4,9.8,9.8v135.6
		C691-395.4,686.6-391,681.2-391"/>
	<g>
		<path class="st3" d="M734.8-531.2c0,3.4-2.8,6.1-6.1,6.1c-3.4,0-6.1-2.8-6.1-6.1c0-3.4,2.8-6.1,6.1-6.1
			C732-537.3,734.8-534.6,734.8-531.2"/>
		<path class="st3" d="M773-531.2c0,3.4-2.8,6.1-6.1,6.1c-3.4,0-6.1-2.8-6.1-6.1c0-3.4,2.8-6.1,6.1-6.1
			C770.2-537.3,773-534.6,773-531.2"/>
		<path class="st3" d="M811.2-531.2c0,3.4-2.8,6.1-6.1,6.1c-3.4,0-6.1-2.8-6.1-6.1c0-3.4,2.8-6.1,6.1-6.1
			C808.5-537.3,811.2-534.6,811.2-531.2"/>
		<path class="st3" d="M849.4-531.2c0,3.4-2.8,6.1-6.1,6.1c-3.4,0-6.1-2.8-6.1-6.1c0-3.4,2.8-6.1,6.1-6.1
			C846.7-537.3,849.4-534.6,849.4-531.2"/>
		<path class="st3" d="M734.8-489.5c0,3.4-2.8,6.1-6.1,6.1c-3.4,0-6.1-2.8-6.1-6.1c0-3.4,2.8-6.1,6.1-6.1
			C732-495.7,734.8-492.9,734.8-489.5"/>
		<path class="st3" d="M773-489.5c0,3.4-2.8,6.1-6.1,6.1c-3.4,0-6.1-2.8-6.1-6.1c0-3.4,2.8-6.1,6.1-6.1
			C770.2-495.7,773-492.9,773-489.5"/>
		<path class="st3" d="M811.2-489.5c0,3.4-2.8,6.1-6.1,6.1c-3.4,0-6.1-2.8-6.1-6.1c0-3.4,2.8-6.1,6.1-6.1
			C808.5-495.7,811.2-492.9,811.2-489.5"/>
		<path class="st3" d="M849.4-489.5c0,3.4-2.8,6.1-6.1,6.1c-3.4,0-6.1-2.8-6.1-6.1c0-3.4,2.8-6.1,6.1-6.1
			C846.7-495.7,849.4-492.9,849.4-489.5"/>
		<path class="st3" d="M734.8-447.8c0,3.4-2.8,6.1-6.1,6.1c-3.4,0-6.1-2.8-6.1-6.1c0-3.4,2.8-6.1,6.1-6.1
			C732-454,734.8-451.2,734.8-447.8"/>
		<path class="st3" d="M773-447.8c0,3.4-2.8,6.1-6.1,6.1c-3.4,0-6.1-2.8-6.1-6.1c0-3.4,2.8-6.1,6.1-6.1
			C770.2-454,773-451.2,773-447.8"/>
		<path class="st3" d="M811.2-447.8c0,3.4-2.8,6.1-6.1,6.1c-3.4,0-6.1-2.8-6.1-6.1c0-3.4,2.8-6.1,6.1-6.1
			C808.5-454,811.2-451.2,811.2-447.8"/>
		<path class="st3" d="M849.4-447.8c0,3.4-2.8,6.1-6.1,6.1c-3.4,0-6.1-2.8-6.1-6.1c0-3.4,2.8-6.1,6.1-6.1
			C846.7-454,849.4-451.2,849.4-447.8"/>
		<path class="st3" d="M734.8-406.1c0,3.4-2.8,6.1-6.1,6.1c-3.4,0-6.1-2.8-6.1-6.1c0-3.4,2.8-6.1,6.1-6.1
			C732-412.3,734.8-409.5,734.8-406.1"/>
		<path class="st3" d="M773-406.1c0,3.4-2.8,6.1-6.1,6.1c-3.4,0-6.1-2.8-6.1-6.1c0-3.4,2.8-6.1,6.1-6.1
			C770.2-412.3,773-409.5,773-406.1"/>
		<path class="st3" d="M811.2-406.1c0,3.4-2.8,6.1-6.1,6.1c-3.4,0-6.1-2.8-6.1-6.1c0-3.4,2.8-6.1,6.1-6.1
			C808.5-412.3,811.2-409.5,811.2-406.1"/>
		<path class="st3" d="M849.4-406.1c0,3.4-2.8,6.1-6.1,6.1c-3.4,0-6.1-2.8-6.1-6.1c0-3.4,2.8-6.1,6.1-6.1
			C846.7-412.3,849.4-409.5,849.4-406.1"/>
	</g>
	<rect x="602.1" y="-546.3" class="st4" width="29.8" height="155.2"/>
	<path class="st3" d="M572.8-568.9c9.8-7.5,19.7-11.4,29.5-14.2c9.8-2.6,19.7-3.9,29.5-3.8c9.8,0,19.7,1.3,29.5,3.9
		c9.9,2.8,19.7,6.7,29.5,14.1v2.1l-14.8,0.5l-14.8,0.2l-29.5,0.4l-29.5-0.4l-14.8-0.2l-14.8-0.5V-568.9z"/>
</g>
<g>
	<path class="st5" d="M465.4,108.2c0,0-32.4,0.1-43.2,0c-33.8-0.3-87.3,30.4-29.9,89.3c77.5,79.4,12.1,79.8-26.6,56.1"/>
	<path class="st1" d="M812.6,290.7H486.2c-16.9,0-30.7-13.7-30.7-30.7V79c0-16.9,13.7-30.7,30.7-30.7h326.5
		c16.9,0,30.7,13.7,30.7,30.7V260C843.3,277,829.6,290.7,812.6,290.7"/>
	<polygon points="789.7,262.6 510.2,262.6 490,242.2 490,96.1 510.2,76.4 789.7,76.4 808.8,96.1 808.8,242.2 	"/>
	<path class="st2" d="M627.7,242.4h-92.5c-5.1,0-9.2-4.1-9.2-9.2V105.9c0-5.1,4.1-9.2,9.2-9.2h92.5c5.1,0,9.2,4.1,9.2,9.2v127.3
		C636.9,238.3,632.8,242.4,627.7,242.4"/>
	<g>
		<path class="st3" d="M678.1,110.8c0,3.2-2.6,5.8-5.8,5.8c-3.2,0-5.8-2.6-5.8-5.8c0-3.2,2.6-5.8,5.8-5.8
			C675.5,105,678.1,107.6,678.1,110.8"/>
		<path class="st3" d="M714,110.8c0,3.2-2.6,5.8-5.8,5.8c-3.2,0-5.8-2.6-5.8-5.8c0-3.2,2.6-5.8,5.8-5.8
			C711.4,105,714,107.6,714,110.8"/>
		<path class="st3" d="M749.8,110.8c0,3.2-2.6,5.8-5.8,5.8c-3.2,0-5.8-2.6-5.8-5.8c0-3.2,2.6-5.8,5.8-5.8
			C747.3,105,749.8,107.6,749.8,110.8"/>
		<path class="st3" d="M785.7,110.8c0,3.2-2.6,5.8-5.8,5.8c-3.2,0-5.8-2.6-5.8-5.8c0-3.2,2.6-5.8,5.8-5.8
			C783.1,105,785.7,107.6,785.7,110.8"/>
		<path class="st3" d="M678.1,149.9c0,3.2-2.6,5.8-5.8,5.8c-3.2,0-5.8-2.6-5.8-5.8c0-3.2,2.6-5.8,5.8-5.8
			C675.5,144.2,678.1,146.8,678.1,149.9"/>
		<path class="st3" d="M714,149.9c0,3.2-2.6,5.8-5.8,5.8c-3.2,0-5.8-2.6-5.8-5.8c0-3.2,2.6-5.8,5.8-5.8
			C711.4,144.2,714,146.8,714,149.9"/>
		<path class="st3" d="M749.8,149.9c0,3.2-2.6,5.8-5.8,5.8c-3.2,0-5.8-2.6-5.8-5.8c0-3.2,2.6-5.8,5.8-5.8
			C747.3,144.2,749.8,146.8,749.8,149.9"/>
		<path class="st3" d="M785.7,149.9c0,3.2-2.6,5.8-5.8,5.8c-3.2,0-5.8-2.6-5.8-5.8c0-3.2,2.6-5.8,5.8-5.8
			C783.1,144.2,785.7,146.8,785.7,149.9"/>
		<path class="st3" d="M678.1,189.1c0,3.2-2.6,5.8-5.8,5.8c-3.2,0-5.8-2.6-5.8-5.8c0-3.2,2.6-5.8,5.8-5.8
			C675.5,183.3,678.1,185.9,678.1,189.1"/>
		<path class="st3" d="M714,189.1c0,3.2-2.6,5.8-5.8,5.8c-3.2,0-5.8-2.6-5.8-5.8c0-3.2,2.6-5.8,5.8-5.8
			C711.4,183.3,714,185.9,714,189.1"/>
		<path class="st3" d="M749.8,189.1c0,3.2-2.6,5.8-5.8,5.8c-3.2,0-5.8-2.6-5.8-5.8c0-3.2,2.6-5.8,5.8-5.8
			C747.3,183.3,749.8,185.9,749.8,189.1"/>
		<path class="st3" d="M785.7,189.1c0,3.2-2.6,5.8-5.8,5.8c-3.2,0-5.8-2.6-5.8-5.8c0-3.2,2.6-5.8,5.8-5.8
			C783.1,183.3,785.7,185.9,785.7,189.1"/>
		<path class="st3" d="M678.1,228.2c0,3.2-2.6,5.8-5.8,5.8c-3.2,0-5.8-2.6-5.8-5.8c0-3.2,2.6-5.8,5.8-5.8
			C675.5,222.4,678.1,225,678.1,228.2"/>
		<path class="st3" d="M714,228.2c0,3.2-2.6,5.8-5.8,5.8c-3.2,0-5.8-2.6-5.8-5.8c0-3.2,2.6-5.8,5.8-5.8
			C711.4,222.4,714,225,714,228.2"/>
		<path class="st3" d="M749.8,228.2c0,3.2-2.6,5.8-5.8,5.8c-3.2,0-5.8-2.6-5.8-5.8c0-3.2,2.6-5.8,5.8-5.8
			C747.3,222.4,749.8,225,749.8,228.2"/>
		<path class="st3" d="M785.7,228.2c0,3.2-2.6,5.8-5.8,5.8c-3.2,0-5.8-2.6-5.8-5.8c0-3.2,2.6-5.8,5.8-5.8
			C783.1,222.4,785.7,225,785.7,228.2"/>
	</g>
	<rect x="553.5" y="96.6" class="st4" width="27.9" height="145.7"/>
	<path class="st3" d="M526,75.4c9.2-7.1,18.5-10.7,27.7-13.3c9.2-2.5,18.5-3.6,27.7-3.6c9.2,0,18.5,1.2,27.7,3.7
		c9.2,2.6,18.5,6.3,27.7,13.3v2l-13.9,0.5l-13.9,0.2l-27.7,0.3l-27.7-0.3l-13.9-0.2L526,77.4V75.4z"/>
</g>
<path class="st6" d="M604.4,103.5c-1.3-1.1-2.5-2.3-3.7-3.7c-3.5-4.1-6-9.1-7.3-14.7c-0.4-1.7-1.9-2.9-3.7-2.9
	c-1.8,0-3.3,1.2-3.7,2.9c-1.3,5.6-3.8,10.6-7.3,14.7c-1.1,1.3-2.3,2.5-3.7,3.7c-1.8,1.5-1.8,4.3,0,5.8c1.3,1.1,2.5,2.3,3.7,3.7
	c3.5,4.1,6,9.1,7.3,14.7c0.4,1.7,1.9,2.9,3.7,2.9c1.8,0,3.3-1.2,3.7-2.9c1.3-5.6,3.8-10.6,7.3-14.7c1.1-1.3,2.3-2.5,3.7-3.7
	C606.1,107.8,606.1,105,604.4,103.5"/>
<path class="st6" d="M566.2,69.5c-1.3-1.1-2.5-2.3-3.7-3.7c-3.5-4.1-6-9.1-7.3-14.7c-0.4-1.7-1.9-2.9-3.7-2.9
	c-1.8,0-3.3,1.2-3.7,2.9c-1.3,5.6-3.8,10.6-7.3,14.7c-1.1,1.3-2.3,2.5-3.7,3.7c-1.8,1.5-1.8,4.3,0,5.8c1.3,1.1,2.5,2.3,3.7,3.7
	c3.5,4.1,6,9.1,7.3,14.7c0.4,1.7,1.9,2.9,3.7,2.9c1.8,0,3.3-1.2,3.7-2.9c1.3-5.6,3.8-10.6,7.3-14.7c1.1-1.3,2.3-2.5,3.7-3.7
	C567.9,73.9,567.9,71.1,566.2,69.5"/>
<path class="st6" d="M550.2,141.3c-1.3-1.1-2.5-2.3-3.7-3.7c-3.5-4.1-6-9.1-7.3-14.7c-0.4-1.7-1.9-2.9-3.7-2.9
	c-1.8,0-3.3,1.2-3.7,2.9c-1.3,5.6-3.8,10.6-7.3,14.7c-1.1,1.3-2.3,2.5-3.7,3.7c-1.8,1.5-1.8,4.3,0,5.8c1.3,1.1,2.5,2.3,3.7,3.7
	c3.5,4.1,6,9.1,7.3,14.7c0.4,1.7,1.9,2.9,3.7,2.9c1.8,0,3.3-1.2,3.7-2.9c1.3-5.6,3.8-10.6,7.3-14.7c1.1-1.3,2.3-2.5,3.7-3.7
	C551.9,145.6,551.9,142.8,550.2,141.3"/>
<path class="st7" d="M428.5,181.1c3.6-5.9,2.6-13.5-2.2-18.4l-1.7-1.7c-5.9-5.9-15.4-5.9-21.3,0L379,185.3c-1.5,1.5-4.1,0.4-4.1-1.7
	V43.5c0-8.3-6.7-15-15-15c-8.3,0-15,6.7-15,15v92.2c0,1.3-1.1,2.4-2.4,2.4c-1.3,0-2.4-1.1-2.4-2.4v-118c0-8.3-6.7-15-15-15
	c-8.3,0-15,6.7-15,15v109.5c0,1.3-1.1,2.4-2.4,2.4c-1.3,0-2.4-1.1-2.4-2.4V28.9c0-8.3-6.7-15-15-15c-8.3,0-15,6.7-15,15v105.7
	c0,1.3-1.1,2.4-2.4,2.4c-1.3,0-2.4-1.1-2.4-2.4V58.3c0-8.3-6.7-15-15-15c-8.3,0-15,6.7-15,15v168.9c0,12.8,3.7,25.3,10.7,36
	l11.1,17.2v47.3h106.5v-47.3L428.5,181.1z"/>
<polygon class="st8" points="375.5,310.5 375.2,361.9 253.1,361.9 253.3,310.5 "/>
<polygon class="st9" points="375.5,310.5 375.4,361.9 314.4,361.9 314.5,310.5 "/>
<polygon class="st10" points="383,354.6 382.5,385.2 245.7,385.2 245.9,354.6 "/>
<polygon class="st11" points="383,354.6 382.8,385.2 314.4,385.2 314.5,354.6 "/>
<g>
	<g>
		<defs>
			<rect id="SVGID_2_" x="310.4" y="193.7" width="43.6" height="74.3"/>
		</defs>
		<clipPath id="SVGID_3_">
			<use xlink:href="#SVGID_2_"  style="overflow:visible;"/>
		</clipPath>
		<path class="st12" d="M353.6,194.4c0,0-42.3,25.7-42.5,73.7"/>
	</g>
</g>
<path class="st7" d="M69.3,280.4v47.3h106.5v-47.3l11.1-17.2c7-10.7,10.7-23.2,10.7-36V58.3c0-8.3-6.7-15-15-15s-15,6.7-15,15v76.4
	c0,1.3-1.1,2.4-2.4,2.4c-1.3,0-2.4-1.1-2.4-2.4V28.9c0-8.3-6.7-15-15-15c-8.3,0-15,6.7-15,15v98.3c0,1.3-1.1,2.4-2.4,2.4
	c-1.3,0-2.4-1.1-2.4-2.4V17.7c0-8.3-6.7-15-15-15c-8.3,0-15,6.7-15,15v118c0,1.3-1.1,2.4-2.4,2.4c-1.3,0-2.4-1.1-2.4-2.4V43.5
	c0-8.3-6.7-15-15-15c-8.3,0-15,6.7-15,15v140.1c0,2.1-2.6,3.2-4.1,1.7L34.7,161c-5.9-5.9-15.4-5.9-21.3,0l-1.7,1.7
	c-4.9,4.9-5.8,12.5-2.2,18.4L69.3,280.4z"/>
<g>
	<g>
		<defs>
			<rect id="SVGID_1_" x="84" y="193.7" width="43.6" height="74.3"/>
		</defs>
		<clipPath id="SVGID_4_">
			<use xlink:href="#SVGID_1_"  style="overflow:visible;"/>
		</clipPath>
		<path class="st13" d="M84.4,194.4c0,0,42.3,25.7,42.5,73.7"/>
	</g>
</g>
<polygon class="st8" points="183.4,310.5 183.1,361.9 61.1,361.9 61.2,310.5 "/>
<polygon class="st9" points="183.4,310.5 183.3,361.9 122.3,361.9 122.4,310.5 "/>
<polygon class="st10" points="190.9,354.6 190.5,385.2 53.6,385.2 53.8,354.6 "/>
<polygon class="st11" points="190.9,354.6 190.7,385.2 122.3,385.2 122.4,354.6 "/>
</svg>
