<svg height="512.00003pt" viewBox="0 0 512.00003 512.00003" width="512.00003pt" xmlns="http://www.w3.org/2000/svg"><path d="m452.265625 0h-392.53125c-32.992187 0-59.734375 26.742188-59.734375 59.734375v392.53125c0 32.992187 26.742188 59.734375 59.734375 59.734375h392.53125c32.992187 0 59.734375-26.742188 59.734375-59.734375v-392.53125c0-32.992187-26.742188-59.734375-59.734375-59.734375zm42.667969 452.265625c0 23.566406-19.101563 42.667969-42.667969 42.667969h-392.53125c-23.566406 0-42.667969-19.101563-42.667969-42.667969v-392.53125c0-23.566406 19.101563-42.667969 42.667969-42.667969h392.53125c11.316406 0 22.167969 4.496094 30.171875 12.496094 8 8.003906 12.496094 18.855469 12.496094 30.171875zm0 0"/><path d="m452.265625 34.132812h-392.53125c-14.140625 0-25.601563 11.460938-25.601563 25.601563v392.53125c0 14.140625 11.460938 25.601563 25.601563 25.601563h392.53125c14.140625 0 25.601563-11.460938 25.601563-25.601563v-392.53125c0-14.140625-11.460938-25.601563-25.601563-25.601563zm-341.332031 426.667969v-6.828125c.042968-18.683594 10.339844-35.835937 26.8125-44.652344l56.753906-35.558593c11.5-6.128907 18.726562-18.058594 18.832031-31.089844v-26.9375c0-2.386719-1-4.664063-2.753906-6.28125-14.308594-13.96875-24.640625-31.496094-29.9375-50.78125-.5-2.167969-1.824219-4.054687-3.695313-5.257813-3.894531-2.472656-6.261718-6.761718-6.277343-11.375v-29.480468c.480469-3.96875 2.542969-7.574219 5.714843-10.003906 1.78125-1.605469 2.804688-3.890626 2.816407-6.289063v-42.121094c.164062-2.457031 4.601562-60.234375 76.800781-60.234375s76.65625 57.777344 76.800781 59.734375v42.664063c0 2.414062 1.023438 4.714844 2.816407 6.332031 3.152343 2.410156 5.210937 5.980469 5.714843 9.917969v29.480468c-.015625 4.613282-2.382812 8.902344-6.277343 11.375-1.871094 1.203126-3.195313 3.089844-3.695313 5.257813-5.332031 19.269531-15.664063 36.792969-29.945313 50.789063-1.75 1.617187-2.746093 3.890624-2.746093 6.273437v26.9375c.066406 12.847656 7.105469 24.644531 18.378906 30.804687l57.660156 36.125c16.246094 8.851563 26.355469 25.871094 26.359375 44.371094v6.828125zm349.867187-8.535156c0 4.714844-3.820312 8.535156-8.535156 8.535156h-34.132813v-6.828125c.046876-24.582031-13.292968-47.238281-34.808593-59.125l-57.65625-36.125c-5.957031-3.175781-9.75-9.300781-9.933594-16.050781v-23.371094c14.695313-15.070312 25.496094-33.492187 31.476563-53.675781 7.082031-5.78125 11.191406-14.441406 11.1875-23.585938v-29.480468c-.246094-7.464844-3.292969-14.5625-8.53125-19.882813v-39.546875c0-.765625-5.207032-76.328125-93.867188-76.328125s-93.808594 75.5625-93.867188 76.800781v39.074219c-5.242187 5.316407-8.289062 12.417969-8.53125 19.882813v29.480468c-.003906 9.144532 4.105469 17.804688 11.1875 23.585938 5.980469 20.183594 16.78125 38.605469 31.476563 53.675781v23.371094c-.226563 6.929687-4.207031 13.1875-10.382813 16.335937l-56.757812 35.609376c-21.730469 11.839843-35.253906 34.609374-35.257812 59.355468v6.828125h-34.132813c-4.714844 0-8.535156-3.820312-8.535156-8.535156v-392.53125c0-4.714844 3.820312-8.535156 8.535156-8.535156h392.53125c4.714844 0 8.535156 3.820312 8.535156 8.535156zm0 0"/><path d="m435.199219 68.265625h-102.398438c-4.714843 0-8.535156 3.820313-8.535156 8.535156 0 4.710938 3.820313 8.53125 8.535156 8.53125h102.398438c4.714843 0 8.535156-3.820312 8.535156-8.53125 0-4.714843-3.820313-8.535156-8.535156-8.535156zm0 0"/><path d="m179.199219 68.265625h-102.398438c-4.714843 0-8.535156 3.820313-8.535156 8.535156 0 4.710938 3.820313 8.53125 8.535156 8.53125h102.398438c4.714843 0 8.535156-3.820312 8.535156-8.53125 0-4.714843-3.820313-8.535156-8.535156-8.535156zm0 0"/><path d="m435.199219 110.933594h-59.734375c-4.710938 0-8.53125 3.820312-8.53125 8.53125 0 4.714844 3.820312 8.535156 8.53125 8.535156h59.734375c4.714843 0 8.535156-3.820312 8.535156-8.535156 0-4.710938-3.820313-8.53125-8.535156-8.53125zm0 0"/><path d="m136.535156 110.933594h-59.734375c-4.714843 0-8.535156 3.820312-8.535156 8.53125 0 4.714844 3.820313 8.535156 8.535156 8.535156h59.734375c4.710938 0 8.53125-3.820312 8.53125-8.535156 0-4.710938-3.820312-8.53125-8.53125-8.53125zm0 0"/><path d="m435.199219 196.265625h-42.664063c-4.714844 0-8.535156 3.820313-8.535156 8.535156 0 4.710938 3.820312 8.53125 8.535156 8.53125h42.664063c4.714843 0 8.535156-3.820312 8.535156-8.53125 0-4.714843-3.820313-8.535156-8.535156-8.535156zm0 0"/><path d="m76.800781 213.332031h42.664063c4.714844 0 8.535156-3.820312 8.535156-8.53125 0-4.714843-3.820312-8.535156-8.535156-8.535156h-42.664063c-4.714843 0-8.535156 3.820313-8.535156 8.535156 0 4.710938 3.820313 8.53125 8.535156 8.53125zm0 0"/><path d="m435.199219 238.933594h-51.199219c-4.710938 0-8.535156 3.820312-8.535156 8.53125 0 4.714844 3.824218 8.535156 8.535156 8.535156h51.199219c4.714843 0 8.535156-3.820312 8.535156-8.535156 0-4.710938-3.820313-8.53125-8.535156-8.53125zm0 0"/><path d="m76.800781 256h51.199219c4.710938 0 8.535156-3.820312 8.535156-8.535156 0-4.710938-3.824218-8.53125-8.535156-8.53125h-51.199219c-4.714843 0-8.535156 3.820312-8.535156 8.53125 0 4.714844 3.820313 8.535156 8.535156 8.535156zm0 0"/><path d="m435.199219 281.601562h-59.734375c-4.710938 0-8.53125 3.820313-8.53125 8.53125 0 4.714844 3.820312 8.535157 8.53125 8.535157h59.734375c4.714843 0 8.535156-3.820313 8.535156-8.535157 0-4.710937-3.820313-8.53125-8.535156-8.53125zm0 0"/><path d="m136.535156 281.601562h-59.734375c-4.714843 0-8.535156 3.820313-8.535156 8.53125 0 4.714844 3.820313 8.535157 8.535156 8.535157h59.734375c4.710938 0 8.53125-3.820313 8.53125-8.535157 0-4.710937-3.820312-8.53125-8.53125-8.53125zm0 0"/><path d="m435.199219 324.265625h-17.066407c-4.710937 0-8.53125 3.820313-8.53125 8.535156 0 4.710938 3.820313 8.53125 8.53125 8.53125h17.066407c4.714843 0 8.535156-3.820312 8.535156-8.53125 0-4.714843-3.820313-8.535156-8.535156-8.535156zm0 0"/><path d="m93.867188 324.265625h-17.066407c-4.714843 0-8.535156 3.820313-8.535156 8.535156 0 4.710938 3.820313 8.53125 8.535156 8.53125h17.066407c4.710937 0 8.53125-3.820312 8.53125-8.53125 0-4.714843-3.820313-8.535156-8.53125-8.535156zm0 0"/><path d="m435.199219 153.601562h-42.664063c-4.714844 0-8.535156 3.820313-8.535156 8.53125 0 4.714844 3.820312 8.535157 8.535156 8.535157h42.664063c4.714843 0 8.535156-3.820313 8.535156-8.535157 0-4.710937-3.820313-8.53125-8.535156-8.53125zm0 0"/><path d="m76.800781 170.667969h42.664063c4.714844 0 8.535156-3.820313 8.535156-8.535157 0-4.710937-3.820312-8.53125-8.535156-8.53125h-42.664063c-4.714843 0-8.535156 3.820313-8.535156 8.53125 0 4.714844 3.820313 8.535157 8.535156 8.535157zm0 0"/></svg>