<?xml version="1.0" encoding="utf-8"?>
<!-- Generator: Adobe Illustrator 25.0.0, SVG Export Plug-In . SVG Version: 6.00 Build 0)  -->
<svg version="1.1" id="Layer_1" xmlns="http://www.w3.org/2000/svg" xmlns:xlink="http://www.w3.org/1999/xlink" x="0px" y="0px"
	 viewBox="0 0 1280 800" style="enable-background:new 0 0 1280 800;" xml:space="preserve">
<style type="text/css">
	.st0{opacity:0.7;fill:#CCDDE5;enable-background:new    ;}
	.st1{opacity:0.5;fill:#CCDDE5;enable-background:new    ;}
</style>
<path class="st0" d="M896.7,800c-3-38.5,13.4-77.5,46.9-101.9c0,0,0,0,0,0c51.3-37.3,123-25.9,160.3,25.4
	c16.7,23,23.7,50.2,21.6,76.5h25.2c2.1-31.5-6.5-63.8-26.4-91.3c0,0,0,0,0,0c-45.4-62.5-132.9-76.3-195.4-30.9
	c-40.3,29.3-60.3,76-57.4,122.2H896.7z"/>
<path class="st1" d="M1280,552.6c-57.1-35.5-132.3-35-189.9,6.9c-76,55.3-92.9,161.7-37.6,237.7c0.7,0.9,1.4,1.8,2,2.7H1280V552.6z"
	/>
</svg>
