<svg xmlns="http://www.w3.org/2000/svg" xmlns:xlink="http://www.w3.org/1999/xlink" viewBox="0 0 1870.12 1736.57"><defs><style>.cls-1,.cls-15,.cls-21,.cls-22,.cls-24{fill:none;}.cls-1{clip-rule:evenodd;}.cls-2{fill:#fff;}.cls-15,.cls-16,.cls-17,.cls-18,.cls-2,.cls-20,.cls-21,.cls-22,.cls-23,.cls-24,.cls-3,.cls-4{fill-rule:evenodd;}.cls-3,.cls-4{fill:#bb332c;}.cls-22,.cls-3{stroke:#fdfdfd;}.cls-15,.cls-20,.cls-21,.cls-22,.cls-24,.cls-3{stroke-miterlimit:10;}.cls-20,.cls-21,.cls-3{stroke-width:1.06px;}.cls-5{clip-path:url(#clip-path);}.cls-6{stroke:#000;stroke-miterlimit:22.93;stroke-width:0.57px;fill:url(#GradientFill_1);}.cls-7{clip-path:url(#clip-path-2);}.cls-8{clip-path:url(#clip-path-3);}.cls-9{clip-path:url(#clip-path-4);}.cls-10{clip-path:url(#clip-path-5);}.cls-11{clip-path:url(#clip-path-6);}.cls-12{clip-path:url(#clip-path-7);}.cls-13{clip-path:url(#clip-path-8);}.cls-14{clip-path:url(#clip-path-9);}.cls-15{stroke:#fbfbfb;}.cls-15,.cls-24{stroke-width:5.29px;}.cls-16,.cls-19,.cls-20{fill:#fdfdfd;}.cls-17{fill:#d43129;}.cls-18{fill:#f9f5f6;}.cls-20,.cls-21{stroke:#d43129;}.cls-22{stroke-width:4.23px;}.cls-23{fill:#f9fafa;}.cls-24{stroke:#f9f8f9;}</style><clipPath id="clip-path" transform="translate(185.06 53.28)"><path class="cls-1" d="M1227.93,345l0,650.11c0,6.43-1.88,15.56-2.87,21.46-4.54,27.17-7.86,35.31-13.67,58.55l-11.81,36.1c-11.55,30.08-15.06,37.44-29.42,66.4-12.41,25-30.73,51-47.67,73.22l-28.2,32.24c-2.15,2.12-3.74,3.78-5.89,5.9l-5.44,4.88-.37.36a353.54,353.54,0,0,1-33.41,28.52l-13.69,9.9c-4.74,3.36-9.23,6.68-14.5,9.81-10,6-24.07,14.76-34.69,19.87l-55,23.1-66.74,18-41.29,6.63c-6.51.76-15.51,2-22.18,2.15-7.56.19-14.53,1.22-22.88,1.45-4,.11-6.1.79-11,.76-4.18,0-8.37,0-12.55,0-4.88,0-6.35.76-11,.78l-78.9-5.18c-20.49-2.27-40.8-6.88-60.45-11.79-32.55-8.14-73.7-24.31-102.9-41.58-12.3-7.28-25.15-15.35-36.43-24l-13.78-10.54c-2.46-2-4-3.47-6.35-5.44-10.68-9-25.1-21.9-33.91-32.43l-14.34-15.88c-1.89-2-3.53-4.39-5.25-6.55-6-7.58-21.37-27.72-25.87-35.31l-9-14.57c-9.48-14.61-26.73-48.29-32.83-63.73-1.26-3.18-2.14-5.13-3.47-8.31s-2.26-5.66-3.58-9L310,1113.15c-2.13-6-4.26-11.18-6.21-18.11-4-14.1-6.77-21.61-10.65-37.27l-8.53-39.36c-1.2-7.2-1.94-13.44-2.95-20.65-1.78-12.7-1.05-57.23-1.05-71.91V346.57l-2.21-.54c-8.65,2.92-45.35,27.29-48.74,27.45s-40.8-24.3-49.31-27.16l-2.2.3V974.49c0,7.86-.71,19.79.11,27.16,1.83,16.57,4.24,31.69,7.33,47.21,3.32,16.73,10.81,49.44,16.24,65.57,2.2,6.52,4.13,14.42,6.45,20.82,2.4,6.6,4.48,13.52,7.15,20.12,2.81,7,5,13.36,7.9,20.12,1.47,3.4,2.33,6,3.79,9.47l22,46.51,19.62,34.92c1.71,2.85,3.24,5.29,5.06,8.2l25,36.18c1.19,1.59,1.86,2.82,3,4.32,6.21,7.94,14.37,18.45,21.31,25.87l16.51,18.14c6.71,8.41,10,10.71,17,16.88,1.27,1.12,2.11,2.08,3.33,3.31s2,2.15,3.31,3.32c11.3,10.46,36.74,31.29,49.95,40,5.4,3.55,10.66,7.66,16.25,11,2.86,1.72,5.4,3.13,8.23,5,3,2,5.78,3.49,8.74,5.27l12.72,7.18c2,1.11,2.47,1.58,4.67,2.7l13.1,6.8c7.72,4.31,33.9,15.13,43.07,18.85,6.28,2.55,13.55,4.68,20,7.26,2.95,1.18,6.65,2.19,10.07,3.21,15.47,4.59,26.66,8.14,42.72,11.82,18.89,4.32,38.27,7.54,58.1,10.46,32.82,4.83,67,5.46,104.38,5.46,9.75,0,17.51-.79,26.55-.73,9.68.07,39.2-2.54,50.45-4.11,29.5-4.1,40.61-5.7,69.89-11.93,25.63-5.44,58.64-16,83.55-25.55l55.84-26c15.82-8.51,37-20.32,51.48-31.08,5.35-4,10.48-7.35,15.9-11.37l50.88-44.21c1.29-1.29,2-2,3.36-3.27l17-17.7c2.24-2.67,4-4,6.31-7l18.77-22.51c4.26-5.24,7.71-10.09,11.77-15.5,15.87-21.13,29.37-43.8,42.07-67,3.36-6.15,6.24-11.76,9.33-18,29.63-59.25,48.72-121.07,59.72-186.45.67-4,1.11-7.26,1.53-11.73.34-3.56,1.22-8.15,1.41-12v-657c-8.29,2.38-48.08,29-51.5,28.85-1.47-.07-22.5-12.58-25.88-14.45C1249.12,356.49,1231.87,345.74,1227.93,345Z"/></clipPath><linearGradient id="GradientFill_1" x1="0.28" y1="868.29" x2="1869.83" y2="868.29" gradientUnits="userSpaceOnUse"><stop offset="0" stop-color="#6c170b"/><stop offset="0.49" stop-color="#e41513"/><stop offset="1" stop-color="#6a160b"/></linearGradient><clipPath id="clip-path-2" transform="translate(185.06 53.28)"><path class="cls-1" d="M749.9,30.07c35.91,28.91,185.25,144.74,270,139.71,90.19-5.26,162.42-91.9,185.4-122.83,18.78,14,226.43,169.05,249.48,186.25-30.39,27.73-102.09,111.46-102.09,290.47,0,19.07.86,39.21,2.73,60.36,11,131.79,40.89,207.34,67.17,274.12,27.42,69.36,51.17,129.27,51.17,237.88,0,154.81-62.3,258.93-184.93,309.51l-42.33,12.76c-34.57,7.93-54.53,14.77-90.89,73.12-37.68,60.37-65.95,50.84-101.64,38.74-20.08-6.76-42.85-14.49-67.54-8.09-22.06,5.66-36.28,17.85-51,30.89-28.43,24.8-63.74,55.58-184.81,50h-1.09c-121.15,5.59-156.34-25.19-184.92-50-14.84-13-28.9-25.23-51.09-30.89-24.64-6.4-47.39,1.33-67.48,8.09-35.68,12.1-63.66,21.63-101.5-38.74-36.6-58.35-56.28-65.19-91-73.12l-42.2-12.76C88.55,1355,26.42,1250.84,26.42,1096c0-108.61,23.69-168.64,51.12-237.88,26.24-66.78,56.27-142.33,67.23-274.12,1.74-21.15,2.64-41.29,2.64-60.19,0-179.18-71.63-262.91-102-290.64C68.44,216,276.05,60.93,294.84,47c23,30.93,95.12,117.57,185.27,122.83,84.75,5,234.14-110.8,269.79-139.71Zm-8.42-27C693,43.47,551.74,147.54,481.69,143.43c-94.09-5.37-172.4-121.18-173.1-122.18a13.45,13.45,0,0,0-8.75-5.74,13.91,13.91,0,0,0-10.32,2.42L16.3,222a13.59,13.59,0,0,0-5.21,10.76A12.77,12.77,0,0,0,17,243.35c1.13.94,122.49,87,101.56,338.53C107.81,709.74,80,780.2,53.09,848.27,25.83,917.36,0,982.38,0,1096c0,164.15,69.66,279.55,201.24,333.75l46.54,14.14c27.86,6.49,41.94,9.7,74.32,61.36,48.86,78.22,95.13,62.52,132.34,49.87,18.17-6.05,35.67-12,52.58-7.58,15.94,4.07,26.85,13.29,40.31,25.12,31.94,27.88,71.62,62.52,202.57,56.67,131.14,5.85,170.86-28.79,202.8-56.67,13.56-11.83,24.14-21,40.34-25.12,17-4.45,34.3,1.53,52.56,7.58,37.16,12.65,83.29,28.35,132.22-49.87,32.44-51.66,46.44-54.87,74.52-61.36l46.37-14.14C1430.48,1375.58,1500,1260.18,1500,1096c0-113.65-25.7-178.67-53-247.65-26.91-68.18-54.83-138.64-65.41-266.5-21-251.5,100.4-337.59,101.62-338.53a13.11,13.11,0,0,0,.38-21.36l-273-204.06a13.34,13.34,0,0,0-19,3.32c-.63,1-79,116.81-173,122.18-70,4.11-211.47-100-260-140.34A13.19,13.19,0,0,0,741.48,3.09Z"/></clipPath><clipPath id="clip-path-3" transform="translate(185.06 53.28)"><path class="cls-1" d="M312.12,199.63c5.47,0,9.19.39,11.34,1.56a10.21,10.21,0,0,1,4.3,4.31q1.17,2.92,1.17,14.07v63.36c0,10.95,1.76,19.36,5.09,25.81,3.52,6.26,9.38,11.54,17.79,15.64,6.06,2.93,14.67,4.5,25.81,4.5,13.49,0,24.05-2.93,31.87-8.41q11.44-8.5,14.67-18.77,2.93-10,2.93-32.85V219.57q0-7.92,1.18-11.14a13.94,13.94,0,0,1,5.27-6.65,18,18,0,0,1,9-2.15h2.74v-3.32H400.5v3.32c5.28,0,9.39.78,12.12,2.15,2,1,3.33,2.74,4.7,5.28,1.17,2.54,1.76,6.65,1.76,12.51v52.8c0,13.69-1.18,23.46-3.72,28.94a28.81,28.81,0,0,1-10.95,13.1,33.3,33.3,0,0,1-18,4.69c-6.06,0-11.15-1.17-15.06-3.71a22.39,22.39,0,0,1-8.8-9.39c-1.75-3.71-2.54-11.34-2.54-23.07V219.57c0-7.43.39-12.12,1.18-13.88a9.18,9.18,0,0,1,4.1-4.5c1.76-1,5.28-1.56,10.37-1.56H379v-3.32H312.12Z"/></clipPath><clipPath id="clip-path-4" transform="translate(185.06 53.28)"><path class="cls-1" d="M449.78,301.31a15.83,15.83,0,1,0,11.15-4.69,15.34,15.34,0,0,0-11.15,4.69Z"/></clipPath><clipPath id="clip-path-5" transform="translate(185.06 53.28)"><path class="cls-1" d="M790.69,196.31v3.32a25.15,25.15,0,0,1,9,1.76c2.15,1.17,4.5,3.52,7.23,7l2.74,3.32v91.71c0,6.84-1.37,11.93-4.3,14.66-2.74,2.94-7.63,4.5-14.86,4.5V326h46.15v-3.33h-3.13a19.71,19.71,0,0,1-11.74-3.91c-3.32-2.74-5.08-7.82-5.08-15.25V220.75l87.41,108.13h3.32V220.94c0-6.25.59-10.56,1.56-13.1a10.61,10.61,0,0,1,4.5-5.47c1.76-1.18,5.48-2,11-2.74v-3.32H881.62v3.32c7.23-.2,12.32,1.76,15.45,5.47,2.15,2.74,3.32,8,3.32,15.84v55.73l-63.74-80.36Z"/></clipPath><clipPath id="clip-path-6" transform="translate(185.06 53.28)"><path class="cls-1" d="M930.12,301.31a15.81,15.81,0,1,0,11.14-4.69,15.34,15.34,0,0,0-11.14,4.69Z"/></clipPath><clipPath id="clip-path-7" transform="translate(185.06 53.28)"><path class="cls-1" d="M1153.84,193.37c-.39,3.33-1.37,5.67-2.94,7a7.26,7.26,0,0,1-5.28,2.35q-2.34,0-11.14-3.52-15.26-5.87-28.75-5.87a71.46,71.46,0,0,0-35,9.19,67.8,67.8,0,0,0-26.2,25.81,69.14,69.14,0,0,0-9.58,35.2,65.87,65.87,0,0,0,8.8,33.05,58,58,0,0,0,24.64,23.85c10.75,5.67,23.07,8.41,36.76,8.41,10.56,0,19.75-1.76,27.57-5.08a72.46,72.46,0,0,0,22.68-16.63V296c-7.43,8.8-14.67,14.86-21.31,18.57a48.28,48.28,0,0,1-22.49,5.28c-9.78,0-18-2.34-24-7.23-6.26-4.89-11-12.12-13.88-21.7a107.79,107.79,0,0,1-4.31-31.68c0-11.93,2-22.68,6.07-32.27a41.6,41.6,0,0,1,14.66-18.18,38.2,38.2,0,0,1,22.29-7,39.6,39.6,0,0,1,25.81,9.39c7.63,6.25,12.91,15.44,15.65,27.18h3.71v-45Z"/></clipPath><clipPath id="clip-path-8" transform="translate(185.06 53.28)"><path class="cls-1" d="M1169.29,301.31a15.82,15.82,0,1,0,11.14-4.69,15.34,15.34,0,0,0-11.14,4.69Z"/></clipPath><clipPath id="clip-path-9" transform="translate(185.06 53.28)"><path class="cls-1" d="M314.55,345.74l884.06,2.93V981s-31,397.21-442,404-442-398.13-442-398.13Z"/></clipPath></defs><g id="Capa_2" data-name="Capa 2"><g id="Capa_1-2" data-name="Capa 1"><path class="cls-2" d="M741.48,3.09C693,43.47,551.74,147.54,481.69,143.43c-94.09-5.37-172.4-121.18-173.1-122.18a13.45,13.45,0,0,0-8.75-5.74,13.91,13.91,0,0,0-10.32,2.42L16.3,222a13.59,13.59,0,0,0-5.21,10.76A12.77,12.77,0,0,0,17,243.35c1.13.94,122.49,87,101.56,338.53C107.81,709.74,80,780.2,53.09,848.27,25.83,917.36,0,982.38,0,1096c0,164.15,69.66,279.55,201.24,333.75l46.54,14.14c27.86,6.49,41.94,9.7,74.32,61.36,48.86,78.22,95.13,62.52,132.34,49.87,18.17-6.05,35.67-12,52.58-7.58,15.94,4.07,26.85,13.29,40.31,25.12,31.94,27.88,71.62,62.52,202.57,56.67,131.14,5.85,170.86-28.79,202.8-56.67,13.56-11.83,24.14-21,40.34-25.12,17-4.45,34.3,1.53,52.56,7.58,37.16,12.65,83.29,28.35,132.22-49.87,32.44-51.66,46.44-54.87,74.52-61.36l46.37-14.14C1430.48,1375.58,1500,1260.18,1500,1096c0-113.65-25.7-178.67-53-247.65-26.91-68.18-54.83-138.64-65.41-266.5-21-251.5,100.4-337.59,101.62-338.53a13.11,13.11,0,0,0,.38-21.36l-273-204.06a13.34,13.34,0,0,0-19,3.32c-.63,1-79,116.81-173,122.18-70,4.11-211.47-100-260-140.34A13.19,13.19,0,0,0,741.48,3.09Z" transform="translate(185.06 53.28)"/><path class="cls-3" d="M240.51,311.81c6.42,0,17.71,1,24.53-2.94a17.51,17.51,0,0,1-3,.59c-8.78.92-17.59,1.54-26.4,2.18C237.27,311.69,238.89,311.8,240.51,311.81Z" transform="translate(185.06 53.28)"/><path class="cls-4" d="M675.49,193.37c-.39,3.33-1.37,5.67-2.93,7a7.26,7.26,0,0,1-5.28,2.35q-2.34,0-11.15-3.52-15.24-5.87-28.74-5.87a71.46,71.46,0,0,0-35,9.19,67.8,67.8,0,0,0-26.2,25.81,69,69,0,0,0-9.58,35.2,66,66,0,0,0,8.79,33.05A58,58,0,0,0,590,320.47c10.76,5.67,23.08,8.41,36.76,8.41,10.56,0,19.75-1.76,27.57-5.08a72.5,72.5,0,0,0,22.69-16.63V296c-7.43,8.8-14.67,14.86-21.32,18.57a48.21,48.21,0,0,1-22.48,5.28c-9.78,0-18-2.34-24-7.23-6.26-4.89-11-12.12-13.89-21.7a108.13,108.13,0,0,1-4.3-31.68c0-11.93,2-22.68,6.06-32.27a41.62,41.62,0,0,1,14.67-18.18,38.2,38.2,0,0,1,22.29-7,39.62,39.62,0,0,1,25.81,9.39c7.63,6.25,12.91,15.44,15.64,27.18h3.72v-45Z" transform="translate(185.06 53.28)"/><path class="cls-4" d="M691,301.31a15.81,15.81,0,1,0,11.14-4.69A15.34,15.34,0,0,0,691,301.31Z" transform="translate(185.06 53.28)"/><path class="cls-4" d="M1227.93,345l0,650.11c0,6.43-1.88,15.56-2.87,21.46-4.54,27.17-7.86,35.31-13.67,58.55l-11.81,36.1c-11.55,30.08-15.06,37.44-29.42,66.4-12.41,25-30.73,51-47.67,73.22l-28.2,32.24c-2.15,2.12-3.74,3.78-5.89,5.9l-5.44,4.88-.37.36a353.54,353.54,0,0,1-33.41,28.52l-13.69,9.9c-4.74,3.36-9.23,6.68-14.5,9.81-10,6-24.07,14.76-34.69,19.87l-55,23.1-66.74,18-41.29,6.63c-6.51.76-15.51,2-22.18,2.15-7.56.19-14.53,1.22-22.88,1.45-4,.11-6.1.79-11,.76-4.18,0-8.37,0-12.55,0-4.88,0-6.35.76-11,.78l-78.9-5.18c-20.49-2.27-40.8-6.88-60.45-11.79-32.55-8.14-73.7-24.31-102.9-41.58-12.3-7.28-25.15-15.35-36.43-24l-13.78-10.54c-2.46-2-4-3.47-6.35-5.44-10.68-9-25.1-21.9-33.91-32.43l-14.34-15.88c-1.89-2-3.53-4.39-5.25-6.55-6-7.58-21.37-27.72-25.87-35.31l-9-14.57c-9.48-14.61-26.73-48.29-32.83-63.73-1.26-3.18-2.14-5.13-3.47-8.31s-2.26-5.66-3.58-9L310,1113.15c-2.13-6-4.26-11.18-6.21-18.11-4-14.1-6.77-21.61-10.65-37.27l-8.53-39.36c-1.2-7.2-1.94-13.44-2.95-20.65-1.78-12.7-1.05-57.23-1.05-71.91V346.57l-2.21-.54c-8.65,2.92-45.35,27.29-48.74,27.45s-40.8-24.3-49.31-27.16l-2.2.3V974.49c0,7.86-.71,19.79.11,27.16,1.83,16.57,4.24,31.69,7.33,47.21,3.32,16.73,10.81,49.44,16.24,65.57,2.2,6.52,4.13,14.42,6.45,20.82,2.4,6.6,4.48,13.52,7.15,20.12,2.81,7,5,13.36,7.9,20.12,1.47,3.4,2.33,6,3.79,9.47l22,46.51,19.62,34.92c1.71,2.85,3.24,5.29,5.06,8.2l25,36.18c1.19,1.59,1.86,2.82,3,4.32,6.21,7.94,14.37,18.45,21.31,25.87l16.51,18.14c6.71,8.41,10,10.71,17,16.88,1.27,1.12,2.11,2.08,3.33,3.31s2,2.15,3.31,3.32c11.3,10.46,36.74,31.29,49.95,40,5.4,3.55,10.66,7.66,16.25,11,2.86,1.72,5.4,3.13,8.23,5,3,2,5.78,3.49,8.74,5.27l12.72,7.18c2,1.11,2.47,1.58,4.67,2.7l13.1,6.8c7.72,4.31,33.9,15.13,43.07,18.85,6.28,2.55,13.55,4.68,20,7.26,2.95,1.18,6.65,2.19,10.07,3.21,15.47,4.59,26.66,8.14,42.72,11.82,18.89,4.32,38.27,7.54,58.1,10.46,32.82,4.83,67,5.46,104.38,5.46,9.75,0,17.51-.79,26.55-.73,9.68.07,39.2-2.54,50.45-4.11,29.5-4.1,40.61-5.7,69.89-11.93,25.63-5.44,58.64-16,83.55-25.55l55.84-26c15.82-8.51,37-20.32,51.48-31.08,5.35-4,10.48-7.35,15.9-11.37l50.88-44.21c1.29-1.29,2-2,3.36-3.27l17-17.7c2.24-2.67,4-4,6.31-7l18.77-22.51c4.26-5.24,7.71-10.09,11.77-15.5,15.87-21.13,29.37-43.8,42.07-67,3.36-6.15,6.24-11.76,9.33-18,29.63-59.25,48.72-121.07,59.72-186.45.67-4,1.11-7.26,1.53-11.73.34-3.56,1.22-8.15,1.41-12v-657c-8.29,2.38-48.08,29-51.5,28.85-1.47-.07-22.5-12.58-25.88-14.45C1249.12,356.49,1231.87,345.74,1227.93,345Z" transform="translate(185.06 53.28)"/><g class="cls-5"><rect class="cls-6" x="0.28" y="0.28" width="1869.55" height="1736.01"/></g><path class="cls-4" d="M749.9,30.07c35.91,28.91,185.25,144.74,270,139.71,90.19-5.26,162.42-91.9,185.4-122.83,18.78,14,226.43,169.05,249.48,186.25-30.39,27.73-102.09,111.46-102.09,290.47,0,19.07.86,39.21,2.73,60.36,11,131.79,40.89,207.34,67.17,274.12,27.42,69.36,51.17,129.27,51.17,237.88,0,154.81-62.3,258.93-184.93,309.51l-42.33,12.76c-34.57,7.93-54.53,14.77-90.89,73.12-37.68,60.37-65.95,50.84-101.64,38.74-20.08-6.76-42.85-14.49-67.54-8.09-22.06,5.66-36.28,17.85-51,30.89-28.43,24.8-63.74,55.58-184.81,50h-1.09c-121.15,5.59-156.34-25.19-184.92-50-14.84-13-28.9-25.23-51.09-30.89-24.64-6.4-47.39,1.33-67.48,8.09-35.68,12.1-63.66,21.63-101.5-38.74-36.6-58.35-56.28-65.19-91-73.12l-42.2-12.76C88.55,1355,26.42,1250.84,26.42,1096c0-108.61,23.69-168.64,51.12-237.88,26.24-66.78,56.27-142.33,67.23-274.12,1.74-21.15,2.64-41.29,2.64-60.19,0-179.18-71.63-262.91-102-290.64C68.44,216,276.05,60.93,294.84,47c23,30.93,95.12,117.57,185.27,122.83,84.75,5,234.14-110.8,269.79-139.71Zm-8.42-27C693,43.47,551.74,147.54,481.69,143.43c-94.09-5.37-172.4-121.18-173.1-122.18a13.45,13.45,0,0,0-8.75-5.74,13.91,13.91,0,0,0-10.32,2.42L16.3,222a13.59,13.59,0,0,0-5.21,10.76A12.77,12.77,0,0,0,17,243.35c1.13.94,122.49,87,101.56,338.53C107.81,709.74,80,780.2,53.09,848.27,25.83,917.36,0,982.38,0,1096c0,164.15,69.66,279.55,201.24,333.75l46.54,14.14c27.86,6.49,41.94,9.7,74.32,61.36,48.86,78.22,95.13,62.52,132.34,49.87,18.17-6.05,35.67-12,52.58-7.58,15.94,4.07,26.85,13.29,40.31,25.12,31.94,27.88,71.62,62.52,202.57,56.67,131.14,5.85,170.86-28.79,202.8-56.67,13.56-11.83,24.14-21,40.34-25.12,17-4.45,34.3,1.53,52.56,7.58,37.16,12.65,83.29,28.35,132.22-49.87,32.44-51.66,46.44-54.87,74.52-61.36l46.37-14.14C1430.48,1375.58,1500,1260.18,1500,1096c0-113.65-25.7-178.67-53-247.65-26.91-68.18-54.83-138.64-65.41-266.5-21-251.5,100.4-337.59,101.62-338.53a13.11,13.11,0,0,0,.38-21.36l-273-204.06a13.34,13.34,0,0,0-19,3.32c-.63,1-79,116.81-173,122.18-70,4.11-211.47-100-260-140.34A13.19,13.19,0,0,0,741.48,3.09Z" transform="translate(185.06 53.28)"/><g class="cls-7"><rect class="cls-6" x="0.28" y="0.28" width="1869.55" height="1736.01"/></g><path class="cls-4" d="M312.12,199.63c5.47,0,9.19.39,11.34,1.56a10.21,10.21,0,0,1,4.3,4.31q1.17,2.92,1.17,14.07v63.36c0,10.95,1.76,19.36,5.09,25.81,3.52,6.26,9.38,11.54,17.79,15.64,6.06,2.93,14.67,4.5,25.81,4.5,13.49,0,24.05-2.93,31.87-8.41q11.44-8.5,14.67-18.77,2.93-10,2.93-32.85V219.57q0-7.92,1.18-11.14a13.94,13.94,0,0,1,5.27-6.65,18,18,0,0,1,9-2.15h2.74v-3.32H400.5v3.32c5.28,0,9.39.78,12.12,2.15,2,1,3.33,2.74,4.7,5.28,1.17,2.54,1.76,6.65,1.76,12.51v52.8c0,13.69-1.18,23.46-3.72,28.94a28.81,28.81,0,0,1-10.95,13.1,33.3,33.3,0,0,1-18,4.69c-6.06,0-11.15-1.17-15.06-3.71a22.39,22.39,0,0,1-8.8-9.39c-1.75-3.71-2.54-11.34-2.54-23.07V219.57c0-7.43.39-12.12,1.18-13.88a9.18,9.18,0,0,1,4.1-4.5c1.76-1,5.28-1.56,10.37-1.56H379v-3.32H312.12Z" transform="translate(185.06 53.28)"/><g class="cls-8"><rect class="cls-6" x="0.28" y="0.28" width="1869.55" height="1736.01"/></g><path class="cls-4" d="M449.78,301.31a15.83,15.83,0,1,0,11.15-4.69,15.34,15.34,0,0,0-11.15,4.69Z" transform="translate(185.06 53.28)"/><g class="cls-9"><rect class="cls-6" x="0.28" y="0.28" width="1869.55" height="1736.01"/></g><path class="cls-4" d="M790.69,196.31v3.32a25.15,25.15,0,0,1,9,1.76c2.15,1.17,4.5,3.52,7.23,7l2.74,3.32v91.71c0,6.84-1.37,11.93-4.3,14.66-2.74,2.94-7.63,4.5-14.86,4.5V326h46.15v-3.33h-3.13a19.71,19.71,0,0,1-11.74-3.91c-3.32-2.74-5.08-7.82-5.08-15.25V220.75l87.41,108.13h3.32V220.94c0-6.25.59-10.56,1.56-13.1a10.61,10.61,0,0,1,4.5-5.47c1.76-1.18,5.48-2,11-2.74v-3.32H881.62v3.32c7.23-.2,12.32,1.76,15.45,5.47,2.15,2.74,3.32,8,3.32,15.84v55.73l-63.74-80.36Z" transform="translate(185.06 53.28)"/><g class="cls-10"><rect class="cls-6" x="0.28" y="0.28" width="1869.55" height="1736.01"/></g><path class="cls-4" d="M930.12,301.31a15.81,15.81,0,1,0,11.14-4.69,15.34,15.34,0,0,0-11.14,4.69Z" transform="translate(185.06 53.28)"/><g class="cls-11"><rect class="cls-6" x="0.28" y="0.28" width="1869.55" height="1736.01"/></g><path class="cls-4" d="M1153.84,193.37c-.39,3.33-1.37,5.67-2.94,7a7.26,7.26,0,0,1-5.28,2.35q-2.34,0-11.14-3.52-15.26-5.87-28.75-5.87a71.46,71.46,0,0,0-35,9.19,67.8,67.8,0,0,0-26.2,25.81,69.14,69.14,0,0,0-9.58,35.2,65.87,65.87,0,0,0,8.8,33.05,58,58,0,0,0,24.64,23.85c10.75,5.67,23.07,8.41,36.76,8.41,10.56,0,19.75-1.76,27.57-5.08a72.46,72.46,0,0,0,22.68-16.63V296c-7.43,8.8-14.67,14.86-21.31,18.57a48.28,48.28,0,0,1-22.49,5.28c-9.78,0-18-2.34-24-7.23-6.26-4.89-11-12.12-13.88-21.7a107.79,107.79,0,0,1-4.31-31.68c0-11.93,2-22.68,6.07-32.27a41.6,41.6,0,0,1,14.66-18.18,38.2,38.2,0,0,1,22.29-7,39.6,39.6,0,0,1,25.81,9.39c7.63,6.25,12.91,15.44,15.65,27.18h3.71v-45Z" transform="translate(185.06 53.28)"/><g class="cls-12"><rect class="cls-6" x="0.28" y="0.28" width="1869.55" height="1736.01"/></g><path class="cls-4" d="M1169.29,301.31a15.82,15.82,0,1,0,11.14-4.69,15.34,15.34,0,0,0-11.14,4.69Z" transform="translate(185.06 53.28)"/><g class="cls-13"><rect class="cls-6" x="0.28" y="0.28" width="1869.55" height="1736.01"/></g><path class="cls-4" d="M314.55,345.74l884.06,2.93V981s-31,397.21-442,404-442-398.13-442-398.13Z" transform="translate(185.06 53.28)"/><g class="cls-14"><rect class="cls-6" x="0.28" y="0.28" width="1869.55" height="1736.01"/></g><path class="cls-15" d="M1054.33,996.19,926.4,1042c-18.95,85.29-91.6,37.67-91.6,37.67L529.44,1210.54,327.19,787.91c5.92,12.3,82.84-68.55,165.56-35.85,52.91,20.92,104-68.43,166.74-13.31l11,9.48s28.71-79.27,94.08-78.55l25.14-.33" transform="translate(185.06 53.28)"/><path class="cls-15" d="M1028.29,973.29l-130.88,47.84s-5.73,70.17-60.24,23.24L571.36,1160.89,544.46,1176,349.86,781.3" transform="translate(185.06 53.28)"/><path class="cls-15" d="M897.43,1019c.06.31.78-41.31,38.43-42.08,89.73-1.83,43.54-1.83,43.54-1.83" transform="translate(185.06 53.28)"/><path class="cls-15" d="M1011.22,949.15s-114.88-37.42-143.63,41.31L712.13,803.31,837.8,1005s-16.72-18.47-63.63,1.21S660.69,1106,601.68,1090.86L417.12,745.78" transform="translate(185.06 53.28)"/><polyline class="cls-15" points="578.42 802.89 770.5 1169.72 742.76 1185.33 555.8 815.17"/><path class="cls-16" d="M740.85,778.48c-19,2.67-40.16,40.85-40.16,40.85L693,834.44,641.76,851l20.39-43.6L729,759.77Z" transform="translate(185.06 53.28)"/><polygon class="cls-17" points="861.43 869.31 854.08 881.68 864.25 877.57 868.05 874.61 863.12 869.16 861.43 869.31"/><path class="cls-18" d="M483.43,824.36l2.69-.76a2.82,2.82,0,0,0,1.71-1.28,2.44,2.44,0,0,0,.3-2l-.71-2.5a2.43,2.43,0,0,0-1.3-1.57,2.84,2.84,0,0,0-2.13-.2l-2.68.76,2.12,7.54Zm-1.85,14.09-6.38-22.61,10.8-3.05a5.6,5.6,0,0,1,4.21.43,4.93,4.93,0,0,1,2.58,3.1l.71,2.5a4.9,4.9,0,0,1-.59,4,5.51,5.51,0,0,1-3.36,2.55l-5.4,1.53,2.83,10Z" transform="translate(185.06 53.28)"/><path class="cls-18" d="M506.65,817.81l2.68-.75a2.85,2.85,0,0,0,1.72-1.28,2.44,2.44,0,0,0,.29-2l-.7-2.5a2.43,2.43,0,0,0-1.3-1.57,2.83,2.83,0,0,0-2.14-.2l-2.68.76,2.13,7.53Zm-1.85,14.1-6.38-22.61,10.8-3a5.53,5.53,0,0,1,4.2.43,4.85,4.85,0,0,1,2.58,3.09l.38,1.36a5.34,5.34,0,0,1-.31,3.59c-.53,1.26-1.76,2.17-3.7,2.71l2.68-.75a2.78,2.78,0,0,1,2.1.2,2.48,2.48,0,0,1,1.3,1.57l2.51,8.89-5.37,1.52-2.12-7.54a2.39,2.39,0,0,0-1.29-1.53,2.83,2.83,0,0,0-2.14-.2l-2.68.76,2.83,10Z" transform="translate(185.06 53.28)"/><path class="cls-18" d="M528.49,806.25,532,818.79a2.49,2.49,0,0,0,1.3,1.55,2.7,2.7,0,0,0,2.1.22,2.79,2.79,0,0,0,1.71-1.3,2.45,2.45,0,0,0,.29-2l-3.54-12.54a2.45,2.45,0,0,0-1.3-1.57,2.8,2.8,0,0,0-2.13-.19,2.76,2.76,0,0,0-1.68,1.27,2.45,2.45,0,0,0-.28,2Zm-1.43-5,5.4-1.52a5.57,5.57,0,0,1,4.2.42,4.91,4.91,0,0,1,2.59,3.1l3.54,12.54a4.86,4.86,0,0,1-.59,4,5.54,5.54,0,0,1-3.36,2.56l-5.4,1.52a5.6,5.6,0,0,1-4.21-.4,4.86,4.86,0,0,1-2.61-3.11l-3.53-12.54a4.85,4.85,0,0,1,.59-4A5.69,5.69,0,0,1,527.06,801.21Z" transform="translate(185.06 53.28)"/><polygon class="cls-18" points="738.92 871.34 733.25 851.24 727.85 852.76 727.14 850.26 743.31 845.7 744.01 848.2 738.61 849.72 744.28 869.83 738.92 871.34"/><path class="cls-18" d="M569.42,794.7,573,807.24a2.44,2.44,0,0,0,1.29,1.55,2.74,2.74,0,0,0,2.1.22,2.79,2.79,0,0,0,1.72-1.29,2.48,2.48,0,0,0,.28-2l-3.53-12.54a2.48,2.48,0,0,0-1.3-1.57,2.85,2.85,0,0,0-2.13-.19,2.79,2.79,0,0,0-1.69,1.27,2.45,2.45,0,0,0-.28,2Zm-1.42-5,5.4-1.52a5.53,5.53,0,0,1,4.2.42,4.87,4.87,0,0,1,2.58,3.1l3.54,12.54a4.86,4.86,0,0,1-.59,4,5.54,5.54,0,0,1-3.36,2.56l-5.39,1.52a5.57,5.57,0,0,1-4.22-.41,4.85,4.85,0,0,1-2.6-3.1L564,796.22a4.86,4.86,0,0,1,.6-4A5.59,5.59,0,0,1,568,789.66Z" transform="translate(185.06 53.28)"/><path class="cls-18" d="M606.85,797.67q1.1,5.13-4,6.56l-5.39,1.52a5.62,5.62,0,0,1-4.22-.41,4.82,4.82,0,0,1-2.61-3.1l-3.54-12.54a4.93,4.93,0,0,1,.58-4,5.52,5.52,0,0,1,3.4-2.57l5.4-1.52q5.09-1.44,6.79,3.52l-2.68.76q-1-2.45-3.4-1.78l-2.72.76a2.78,2.78,0,0,0-1.68,1.28,2.45,2.45,0,0,0-.28,2l3.53,12.53a2.48,2.48,0,0,0,1.3,1.56,2.74,2.74,0,0,0,2.1.22l2.72-.77a2.58,2.58,0,0,0,2-3.29Z" transform="translate(185.06 53.28)"/><path class="cls-18" d="M612.3,781.63l3.54,12.53a2.48,2.48,0,0,0,1.3,1.56,2.7,2.7,0,0,0,2.1.22,2.78,2.78,0,0,0,1.71-1.3,2.45,2.45,0,0,0,.29-2L617.7,780.1a2.48,2.48,0,0,0-1.3-1.57,2.8,2.8,0,0,0-2.13-.19,2.76,2.76,0,0,0-1.68,1.27,2.45,2.45,0,0,0-.29,2Zm-1.42-5,5.4-1.52a5.47,5.47,0,0,1,4.2.42,4.91,4.91,0,0,1,2.59,3.1l3.54,12.54a4.88,4.88,0,0,1-.59,4,5.43,5.43,0,0,1-3.36,2.56l-5.4,1.53a5.6,5.6,0,0,1-4.21-.41,4.84,4.84,0,0,1-2.61-3.1l-3.54-12.54a4.86,4.86,0,0,1,.6-4A5.65,5.65,0,0,1,610.88,776.59Z" transform="translate(185.06 53.28)"/><polygon class="cls-18" points="820.18 847.44 813.8 824.83 819.2 823.31 824.87 843.41 832.96 841.13 833.66 843.64 820.18 847.44"/><path class="cls-18" d="M652.52,769.31l3.54,12.53a2.42,2.42,0,0,0,1.3,1.56,2.7,2.7,0,0,0,2.1.22,2.78,2.78,0,0,0,1.71-1.3,2.46,2.46,0,0,0,.29-2l-3.54-12.54a2.48,2.48,0,0,0-1.3-1.57,2.8,2.8,0,0,0-2.13-.19,2.76,2.76,0,0,0-1.68,1.27,2.45,2.45,0,0,0-.29,2Zm-1.42-5,5.4-1.52a5.57,5.57,0,0,1,4.2.42,4.91,4.91,0,0,1,2.59,3.1l3.53,12.54a4.86,4.86,0,0,1-.58,4,5.54,5.54,0,0,1-3.36,2.56l-5.4,1.52a5.59,5.59,0,0,1-4.21-.41,4.84,4.84,0,0,1-2.61-3.1l-3.54-12.54a4.86,4.86,0,0,1,.6-4A5.65,5.65,0,0,1,651.1,764.27Z" transform="translate(185.06 53.28)"/><polygon class="cls-16" points="736.83 1021.72 728.78 997.6 742.75 992.94 743.64 995.61 735.27 998.4 737.95 1006.44 743.54 1004.58 744.44 1007.28 738.85 1009.15 741.53 1017.19 749.9 1014.39 750.79 1017.07 736.83 1021.72"/><path class="cls-16" d="M580.69,938l-2.78.93q-1.27-2.58-3.55-1.82a3.36,3.36,0,0,0-2,1.41,2.68,2.68,0,0,0-.06,2.27,2.88,2.88,0,0,0,1.43,1.63l8,4.39a5.82,5.82,0,0,1,2.91,3.25l.44,1.32a5.37,5.37,0,0,1-.38,4.32,5.74,5.74,0,0,1-3.42,2.91l-2.78.93a6.19,6.19,0,0,1-4.64.06,5.61,5.61,0,0,1-2.75-3.56l2.82-1c.06.2.11.35.14.46a2,2,0,0,0,1.43,1.38,3.61,3.61,0,0,0,2.11-.06,3,3,0,0,0,1.89-1.4,3,3,0,0,0,0-2.23,2.87,2.87,0,0,0-1.44-1.62l-8-4.4a5.72,5.72,0,0,1-2.91-3.24l-.44-1.32a5.4,5.4,0,0,1,.38-4.33,5.78,5.78,0,0,1,3.42-2.91l2.78-.93C576.81,933.29,579.27,934.45,580.69,938Z" transform="translate(185.06 53.28)"/><path class="cls-16" d="M609.08,943.36q1.45,5.48-3.77,7.23l-5.59,1.86a5.85,5.85,0,0,1-4.46-.26,5.35,5.35,0,0,1-2.93-3.25l-4.46-13.38a5.42,5.42,0,0,1,.37-4.32,5.74,5.74,0,0,1,3.43-2.91l5.6-1.87c3.5-1.17,6,0,7.35,3.52l-2.78.93c-.83-1.73-2.05-2.32-3.68-1.78l-2.82.94a2.91,2.91,0,0,0-1.69,1.44,2.71,2.71,0,0,0-.18,2.19l4.46,13.38a2.66,2.66,0,0,0,1.45,1.62,2.88,2.88,0,0,0,2.23.16l2.81-.94c1.65-.55,2.28-1.77,1.88-3.63Z" transform="translate(185.06 53.28)"/><path class="cls-16" d="M619.3,931l2.78-.93a2.91,2.91,0,0,0,1.73-1.45,2.65,2.65,0,0,0,.19-2.16l-.89-2.67a2.7,2.7,0,0,0-1.45-1.64,3,3,0,0,0-2.26-.12l-2.78.93,2.68,8Zm-1.12,15.27-8-24.12,11.18-3.73a5.74,5.74,0,0,1,4.45.29,5.31,5.31,0,0,1,2.9,3.23l.49,1.45a5.9,5.9,0,0,1-.12,3.88q-.72,2.07-3.74,3.09l2.78-.93a2.9,2.9,0,0,1,2.22.13,2.69,2.69,0,0,1,1.46,1.64l3.17,9.49-5.56,1.86-2.68-8.05a2.66,2.66,0,0,0-1.45-1.6,2.9,2.9,0,0,0-2.26-.13l-2.78.93,3.57,10.71Z" transform="translate(185.06 53.28)"/><rect class="cls-19" x="640.89" y="911.63" width="5.86" height="25.43" transform="translate(-74.34 304.49) rotate(-18.45)"/><polygon class="cls-16" points="845.04 984.49 837.89 963.04 832.29 964.9 831.4 962.23 848.15 956.64 849.04 959.32 843.45 961.18 850.6 982.63 845.04 984.49"/><path class="cls-16" d="M678.77,898.14l5.56-1.85L690.58,915a5.34,5.34,0,0,1-.38,4.32,5.73,5.73,0,0,1-3.39,2.9l-5.59,1.87a5.85,5.85,0,0,1-4.46-.27,5.31,5.31,0,0,1-2.92-3.24l-6.25-18.75,5.59-1.87,6.25,18.76a2.73,2.73,0,0,0,1.46,1.62,2.86,2.86,0,0,0,2.22.15,2.9,2.9,0,0,0,1.73-1.47,2.71,2.71,0,0,0,.18-2.17Z" transform="translate(185.06 53.28)"/><path class="cls-16" d="M700.75,902.71l2.78-.92a2.92,2.92,0,0,0,1.73-1.46,2.66,2.66,0,0,0,.19-2.15l-.89-2.67a2.69,2.69,0,0,0-1.46-1.64,2.92,2.92,0,0,0-2.25-.13l-2.78.93,2.68,8ZM699.63,918l-8-24.12,11.19-3.73a5.74,5.74,0,0,1,4.45.28,5.39,5.39,0,0,1,2.9,3.24l.48,1.44a5.93,5.93,0,0,1-.12,3.89q-.72,2.07-3.73,3.08l2.78-.93a2.86,2.86,0,0,1,2.22.14,2.69,2.69,0,0,1,1.46,1.64l3.16,9.48-5.56,1.86-2.68-8a2.6,2.6,0,0,0-1.45-1.6,2.84,2.84,0,0,0-2.25-.13l-2.78.93,3.57,10.7Z" transform="translate(185.06 53.28)"/><path class="cls-16" d="M724.79,894.7l5.59-1.87-1.78-5.34a2.69,2.69,0,0,0-1.46-1.64,2.92,2.92,0,0,0-2.25-.12,2.86,2.86,0,0,0-1.7,1.44,2.71,2.71,0,0,0-.18,2.19l1.78,5.34ZM723.67,910l-6.25-18.75a5.28,5.28,0,0,1,.39-4.35,5.81,5.81,0,0,1,3.41-2.89l5.59-1.86a5.7,5.7,0,0,1,4.45.29,5.34,5.34,0,0,1,2.9,3.23l6.25,18.75-5.56,1.85-3.57-10.71-5.59,1.87,3.57,10.71Z" transform="translate(185.06 53.28)"/><path class="cls-20" d="M803.41,793.45s-44.89,100.5,26.76,54.6l23.73-38Z" transform="translate(185.06 53.28)"/><path class="cls-20" d="M764.32,789.15s-8.18,85.85,37.22,11.06Z" transform="translate(185.06 53.28)"/><path class="cls-16" d="M833.81,641.67,810,687.11c-23.57,19.34-51.31,59.82-82,65.59a6.7,6.7,0,0,1-6.73-5.66c-1.33-15.49,6.9-28.67,15.38-38.76,22.65-26.91,60.49-64.48,97-69.14Z" transform="translate(185.06 53.28)"/><path class="cls-21" d="M833.81,641.67,810,687.11c-23.57,19.34-51.31,59.82-82,65.59a6.7,6.7,0,0,1-6.73-5.66c-1.33-15.49,6.9-28.67,15.38-38.76,22.65-26.91,60.49-64.48,97-69.14" transform="translate(185.06 53.28)"/><path class="cls-16" d="M876.91,839.69l-14.6.65-10.9,33.33s-29.72,25-27.08-12.79,17.44-50.5,17.44-50.5Z" transform="translate(185.06 53.28)"/><path class="cls-21" d="M876.91,839.69l-14.6.65-10.9,33.33s-29.72,25-27.08-12.79,17.44-50.5,17.44-50.5l35.14,29.31" transform="translate(185.06 53.28)"/><path class="cls-20" d="M737.59,751.78s-12.68,30.64,18.64,40.49a252.23,252.23,0,0,0,59.84,10.81s46.72,8.45,61.12,39.83l50,27.47s43.95,18.94,85.56,18.34l58.58-90c-11.82-8.31-15-4.54-24.38-12.46-44.44-42.78-72.05-92.82-117.44-132.46l-31,21.71,1.25,14.62c.28,5.59.77,11.37,1.27,17.15Q898.21,725,886,734.8c-20.89,28-54.93,4.72-84.33,1.43-11.56,1-23.63-3.8-33.92,2Z" transform="translate(185.06 53.28)"/><path class="cls-16" d="M772.9,753.31l2.5,29s-27.77-.21-25.67-20.41S772.9,753.31,772.9,753.31Z" transform="translate(185.06 53.28)"/><path class="cls-21" d="M772.9,753.31l2.5,29s-27.77-.21-25.67-20.41S772.9,753.31,772.9,753.31Z" transform="translate(185.06 53.28)"/><path class="cls-16" d="M794.91,733.57l24.35-12.29s19.17,15.62,37.43,1.87,57.76-33.63,24.66-28.55l14.91-8.32-7.77-7.75,9.59-.48,28.47-13.39-4.21-7.48c11.13-5.15,13.59-6.15,34.64-32s39.56-23.32,39.56-23.32l-12.66-1-.65-7.22c-.65-7.21,30.22-4.9,30.22-4.9-1.09-1.28-6.59-7.66-6.59-7.66s-9.5-.71,7,1.72,59.57-45.7,59.57-45.7c-17.44,9.44-11.44-6.83-11.44-6.83,28.86-2.62,42.88-30.23,42.88-30.23,45.49-1.38,44.62-66.59,44.62-66.59,67.58,13.32,22.85-1.08,13.41-3.78-84-24-122.27,19-122.27,19l1-13.06c-85,34.25-113,105-129.24,99-10.53-3.87-64.8,95.59-65.84,97.79l-5.24-9.94c-14.22,14.46-14.89,39.49-14.89,39.49l-6.51-8.85c-14.31,15.65-10.42,43.41-10.42,43.41L779,723.5Z" transform="translate(185.06 53.28)"/><path class="cls-21" d="M794.91,733.57l24.35-12.29s19.17,15.62,37.43,1.87,57.76-33.63,24.66-28.55l14.91-8.32-7.77-7.75,9.59-.48,28.47-13.39-4.21-7.48c11.13-5.15,13.59-6.15,34.64-32s39.56-23.32,39.56-23.32l-12.66-1-.65-7.22c-.65-7.21,30.22-4.9,30.22-4.9-1.09-1.28-6.59-7.66-6.59-7.66s-9.5-.71,7,1.72,59.57-45.7,59.57-45.7c-17.44,9.44-11.44-6.83-11.44-6.83,28.86-2.62,42.88-30.23,42.88-30.23,45.49-1.38,44.62-66.59,44.62-66.59,67.58,13.32,22.85-1.08,13.41-3.78-84-24-122.27,19-122.27,19l1-13.06c-85,34.25-113,105-129.24,99-10.53-3.87-64.8,95.59-65.84,97.79l-5.24-9.94c-14.22,14.46-14.89,39.49-14.89,39.49l-6.51-8.85c-14.31,15.65-10.42,43.41-10.42,43.41L779,723.5Z" transform="translate(185.06 53.28)"/><polygon class="cls-17" points="1045.77 704.66 1075.94 673.23 1259.6 517.21 1045.77 704.66"/><path class="cls-16" d="M1173.84,829.26l-58.15-43.9S1058,809.7,1017.17,931.22c-7.54,22.42-3.33,9.89-3.33,9.89l55.75,53S1149.33,824.84,1173.84,829.26Z" transform="translate(185.06 53.28)"/><path class="cls-16" d="M1008.66,947.18l-12,22.63s10.89,38.53,47.77,62.63l20.89-32.79Z" transform="translate(185.06 53.28)"/><path class="cls-17" d="M1046.83,1003.65c-.34,4.31-4.42,7.51-9.1,7.15s-8.21-4.14-7.87-8.46,4.43-7.52,9.1-7.16S1047.17,999.33,1046.83,1003.65Z" transform="translate(185.06 53.28)"/><path class="cls-22" d="M585.44,1114.45s52.49,17.25,165.57-63.59c74.31-53.11,86.16-8.48,86.16-8.48" transform="translate(185.06 53.28)"/><path class="cls-23" d="M257,418.79v31.83h-1.75V449c0-2.4-.26-4-.78-4.93a4.29,4.29,0,0,0-2.15-1.91q-1.36-.57-6.86-.57H214.09q-8.61,0-11.4,1.25a10.64,10.64,0,0,0-4.63,4.11,13.12,13.12,0,0,0-1.85,7.24,15.06,15.06,0,0,0,2.34,8.52A14.28,14.28,0,0,0,205,468q4.11,1.74,14.33,1.75h26.14a15.6,15.6,0,0,0,6.15-.87,5.25,5.25,0,0,0,2.55-2.18,12.44,12.44,0,0,0,1.09-5.77H257v21.32h-1.75V481a7.92,7.92,0,0,0-1.09-4.32,6.08,6.08,0,0,0-3.26-2.5,16.79,16.79,0,0,0-5.44-.59H221.13q-11.3,0-16.31-1.44t-9.22-7q-4.22-5.54-4.21-15.14,0-8,2.22-12.37a18.44,18.44,0,0,1,7.76-8.41q4.73-2.46,12.72-2.46h31.39c3.69,0,6-.19,6.88-.59a4.5,4.5,0,0,0,2.16-2.05c.53-1,.79-2.75.75-5.36Z" transform="translate(185.06 53.28)"/><path class="cls-23" d="M257,511.68,217.25,542.1h27.57q5.77,0,7.8-1.59,2.74-2.18,2.65-7.32H257v20.37h-1.75a15.14,15.14,0,0,0-1.34-5.25,5.42,5.42,0,0,0-2.7-2.09,19.1,19.1,0,0,0-6.41-.75H191.44v-1.55l53.38-41.7H204.06q-5.53,0-7.47,2.43a8.7,8.7,0,0,0-1.94,5.57v1.46H192.9V489.81h1.75c0,3.39.76,5.76,2.18,7.09s3.83,2,7.23,2h45.26l1.7-1.32a12,12,0,0,0,3.35-3.45,10,10,0,0,0,.9-4.32H257Z" transform="translate(185.06 53.28)"/><path class="cls-23" d="M194.65,594.55H192.9V562.31h1.75v2a8.19,8.19,0,0,0,1,4.33,4.3,4.3,0,0,0,2.27,1.82c.75.33,2.74.49,6,.49h42.18q4.92,0,6.15-.49a4.66,4.66,0,0,0,2.15-2,7.87,7.87,0,0,0,.92-4.11v-2.05H257v32.24h-1.75v-2a8.26,8.26,0,0,0-1-4.31,4.45,4.45,0,0,0-2.27-1.87c-.76-.34-2.74-.5-6-.5H203.87c-3.28,0-5.32.17-6.14.52a4.88,4.88,0,0,0-2.16,2,8,8,0,0,0-.92,4.11Z" transform="translate(185.06 53.28)"/><path class="cls-23" d="M254.9,637.88q0-8.46-9-12.87-7.38-3.59-21.18-3.59-16.41,0-24.26,5.55A12.47,12.47,0,0,0,195,637.79a12.6,12.6,0,0,0,2.37,7.82q3,4,9.67,6.23t17.33,2.23q12.72,0,19-2.28t8.91-5.79a13.29,13.29,0,0,0,2.61-8.12Zm3-.55q.57,14.74-8.94,23.95t-23.78,9.2a35.07,35.07,0,0,1-21.47-6.86q-12.3-9.09-12.29-25.69t11.72-25.74a34.84,34.84,0,0,1,22-7.19q14.28,0,23.81,9.35A29.11,29.11,0,0,1,257.92,637.33Z" transform="translate(185.06 53.28)"/><path class="cls-23" d="M257,701.62,217.25,732h27.57q5.77,0,7.8-1.59c1.83-1.45,2.71-3.9,2.65-7.32H257V743.5h-1.75a15.21,15.21,0,0,0-1.34-5.25,5.48,5.48,0,0,0-2.7-2.09,19.1,19.1,0,0,0-6.41-.75H191.44v-1.55l53.38-41.7H204.06q-5.53,0-7.47,2.44a8.66,8.66,0,0,0-1.94,5.56v1.46H192.9V679.75h1.75q0,5.09,2.18,7.09t7.23,2h45.26l1.7-1.32a12,12,0,0,0,3.35-3.45,10,10,0,0,0,.9-4.32H257Z" transform="translate(185.06 53.28)"/><path class="cls-23" d="M258.49,868.37H236.26V866.6q8.7-2,13.34-7.46a18.59,18.59,0,0,0,4.63-12.37,17.78,17.78,0,0,0-3.45-10.59,19.9,19.9,0,0,0-9-7,42.33,42.33,0,0,0-15.89-2.87,54.86,54.86,0,0,0-15.67,2.1q-7.08,2.08-10.69,6.54t-3.62,11.55a21.84,21.84,0,0,0,2.65,10.67q2.66,4.85,9.13,10.21h-5.54a33.75,33.75,0,0,1-8.15-10.8,31.66,31.66,0,0,1-2.53-13.12,36.51,36.51,0,0,1,4.11-17.53,28.5,28.5,0,0,1,11.82-11.83,34.09,34.09,0,0,1,16.41-4.16,35,35,0,0,1,17.4,4.62A33.12,33.12,0,0,1,254,827a32.71,32.71,0,0,1,4.54,16.67,36.66,36.66,0,0,1-2.93,13.73,20.24,20.24,0,0,0-1.7,5.32,3.37,3.37,0,0,0,1.1,2.52,6.14,6.14,0,0,0,3.53,1.39Z" transform="translate(185.06 53.28)"/><path class="cls-23" d="M254.9,914.69q0-8.46-9-12.87-7.38-3.6-21.18-3.6-16.41,0-24.26,5.55a13.67,13.67,0,0,0-3.12,18.65q3,4,9.67,6.23t17.33,2.23q12.72,0,19-2.28t8.91-5.8a13.26,13.26,0,0,0,2.61-8.11Zm3-.55q.57,14.73-8.94,23.94t-23.78,9.21a35.13,35.13,0,0,1-21.47-6.86q-12.3-9.1-12.29-25.7T203.16,889a34.83,34.83,0,0,1,22-7.18q14.28,0,23.81,9.34A29.12,29.12,0,0,1,257.92,914.14Z" transform="translate(185.06 53.28)"/><path class="cls-23" d="M215.41,1014.12l-22.51-2.32V957h1.75v2.05a8.17,8.17,0,0,0,1,4.32,4.25,4.25,0,0,0,2.27,1.82c.75.33,2.74.5,6,.5h42.18q4.92,0,6.15-.5a4.68,4.68,0,0,0,2.15-2,7.89,7.89,0,0,0,.92-4.12V957H257v32.88h-1.75v-2.68a8.27,8.27,0,0,0-1-4.32,4.44,4.44,0,0,0-2.27-1.86c-.76-.34-2.74-.5-6-.5H205.2q-4.92,0-6.27.54a3.7,3.7,0,0,0-2,2.14,21.09,21.09,0,0,0-.42,5.5v5.14a16.88,16.88,0,0,0,1.79,8.19,15.62,15.62,0,0,0,5.68,5.66,47.23,47.23,0,0,0,11.44,4.52Z" transform="translate(185.06 53.28)"/><path class="cls-23" d="M261.78,1041.31l-25.21,6.76.32,1.19q1.52,5.65,5.9,7.22t11.79.32l.44,1.67-32.42,8.7-.45-1.67a25.73,25.73,0,0,0,8.08-4.55,10.12,10.12,0,0,0,3.49-5.15,14.77,14.77,0,0,0-.58-6.81l-17.45,4.68c-3.4.92-5.45,1.61-6.14,2.1a3.86,3.86,0,0,0-1.45,2.06,7.2,7.2,0,0,0,.26,3.88l.95,3.56q2.25,8.36,7.61,12.3t14.18,3.94l.43,1.62-20.4,2.61-13.81-51.48,1.69-.46.53,2a8.16,8.16,0,0,0,2.08,3.92,4.27,4.27,0,0,0,2.66,1.17q1.23.18,5.88-1.06l40.74-10.94a34.67,34.67,0,0,0,5.1-1.6,4.48,4.48,0,0,0,2-2.29,7.54,7.54,0,0,0,.06-4.91l-.53-2,1.68-.46,13.38,49.85-18.31,4.92-.45-1.67q6.38-3.08,8.68-6.17a13.75,13.75,0,0,0,2.54-7.67c.11-1.79-.44-4.93-1.65-9.44Z" transform="translate(185.06 53.28)"/><path class="cls-23" d="M300,1137.26l-21.06,8.2-.62-1.57q7.55-6.21,9.82-13.63a21,21,0,0,0-.34-14.16,16.74,16.74,0,0,0-7.93-9.26,22,22,0,0,0-12.87-2,57.8,57.8,0,0,0-14.53,3.6,56.23,56.23,0,0,0-14.31,7.82q-5.73,4.47-7.07,10a18.8,18.8,0,0,0,1,11.5,22.44,22.44,0,0,0,2.12,4.09,32,32,0,0,0,3.08,3.94l12.43-4.83a14.88,14.88,0,0,0,4.38-2.24,4.72,4.72,0,0,0,1.12-2.66,7.48,7.48,0,0,0-.54-3.86l-.57-1.49,1.63-.63L266.53,1158l-1.64.64a12.74,12.74,0,0,0-2.62-4.08,4.82,4.82,0,0,0-3-1,14,14,0,0,0-4.25,1.21l-12.43,4.83a58.43,58.43,0,0,1-8.31-10,62.11,62.11,0,0,1-6.11-11.84q-3.18-8.19-3-14.49a36.16,36.16,0,0,1,2.37-11.9,30.58,30.58,0,0,1,6-9.76,32.81,32.81,0,0,1,12.46-8.27,33.6,33.6,0,0,1,26.33.25q12.84,5.49,18.22,19.31a33.29,33.29,0,0,1,2.64,14.8,26,26,0,0,0,.27,5.59,3.47,3.47,0,0,0,1.76,1.85,8.72,8.72,0,0,0,4.14.53Z" transform="translate(185.06 53.28)"/><path class="cls-23" d="M262.65,1205.7l-1.56.78-14.37-28.87,1.56-.77.91,1.83a8.26,8.26,0,0,0,2.82,3.42,4.23,4.23,0,0,0,2.84.62q1.25-.06,5.56-2.21l37.75-18.8q4.41-2.19,5.28-3.19a4.64,4.64,0,0,0,1-2.77,8,8,0,0,0-1-4.1l-.92-1.83,1.57-.78,14.37,28.86-1.56.78-.91-1.83a8.26,8.26,0,0,0-2.82-3.42,4.47,4.47,0,0,0-2.86-.66c-.83,0-2.68.77-5.56,2.21L267,1193.77q-4.41,2.19-5.28,3.21a4.88,4.88,0,0,0-1,2.79,8,8,0,0,0,1,4.09Z" transform="translate(185.06 53.28)"/><path class="cls-23" d="M303.57,1236.22l13.91-19.45-23.75,3.61,9.84,15.84Zm-2.15,3.16-11.5-18.5-6.67,1.09a14.33,14.33,0,0,0-5.05,1.64,4.32,4.32,0,0,0-2.27,3.87q0,1.44,2.23,5.74l-1.49.92-10.82-17.42,1.49-.93a9,9,0,0,0,5.31,3.13q3.11.58,11-.62l55.1-8.27.46.74-32.93,46.63q-4.66,6.64-5.23,9.41a7,7,0,0,0,.85,4.61l-1.48.92L284.66,1247l1.49-.92.65,1c1.26,2,2.44,3.28,3.55,3.74a2.55,2.55,0,0,0,2.37-.3,6,6,0,0,0,1.34-1.15c.21-.2,1-1.21,2.3-3Z" transform="translate(185.06 53.28)"/><path class="cls-23" d="M369.16,1262.14l-38.63,31.78a18.33,18.33,0,0,0-3.53,3.38,2.67,2.67,0,0,0-.28,1.82,7.33,7.33,0,0,0,1.71,3.19q4.83,5.85,11.53,5.53,9.09-.42,20.92-10.15,9.54-7.85,12.86-15.41,2.58-5.94,1.24-10.85c-.64-2.31-2.57-5.41-5.82-9.29Zm-61.63,20.27,1.35-1.12,1.3,1.58a8,8,0,0,0,3.29,2.63,5.35,5.35,0,0,0,3.19.11q1-.31,4.86-3.47l32.57-26.8c2.53-2.08,4-3.51,4.43-4.29a4.66,4.66,0,0,0,.37-2.93,7.87,7.87,0,0,0-1.9-3.76l-1.3-1.58,1.35-1.11L374.58,1263q7,8.54,8.89,15.72a26.68,26.68,0,0,1-1,17,38.19,38.19,0,0,1-21.8,20.73,28.89,28.89,0,0,1-10.7,1.81,26.53,26.53,0,0,1-9.47-2.14,39.58,39.58,0,0,1-9.43-6,47.52,47.52,0,0,1-6-6.38Z" transform="translate(185.06 53.28)"/><path class="cls-23" d="M399,1350l8-22.54-21.82,10L399,1350Zm-1.2,3.63-16.16-14.6-6.11,2.88a14.43,14.43,0,0,0-4.4,3,4.3,4.3,0,0,0-1.11,4.34q.4,1.4,3.72,4.9l-1.17,1.3-15.21-13.75,1.17-1.3a9,9,0,0,0,6,1.53c2.1-.19,5.57-1.41,10.39-3.63l50.68-23.16.63.58-18.76,53.91c-1.76,5.12-2.58,8.62-2.43,10.49a7,7,0,0,0,2.1,4.19l-1.18,1.3-22.12-20,1.17-1.3.91.82q2.65,2.41,4.44,2.62a2.55,2.55,0,0,0,2.2-1,6,6,0,0,0,1-1.48c.15-.25.6-1.43,1.37-3.54Z" transform="translate(185.06 53.28)"/><path class="cls-23" d="M510.71,1381l-22.47,44.69a17.87,17.87,0,0,0-1.87,4.52,2.68,2.68,0,0,0,.48,1.77,7.17,7.17,0,0,0,2.85,2.23q6.78,3.4,12.78.39,8.16-4.05,15-17.74,5.55-11,5.53-19.29,0-6.48-3.26-10.42-2.26-2.79-9.07-6.15Zm-48.18,43.47.79-1.57,1.83.92a7.91,7.91,0,0,0,4.07,1.07,5.33,5.33,0,0,0,3-1.18c.54-.47,1.56-2.18,3-5.15l18.95-37.68q2.2-4.39,2.31-5.71a4.65,4.65,0,0,0-.84-2.83,7.86,7.86,0,0,0-3.26-2.68l-1.83-.92.79-1.56,24.66,12.4q9.87,5,14.48,10.78a26.64,26.64,0,0,1,5.95,16,38.21,38.21,0,0,1-11.55,27.77,28.84,28.84,0,0,1-9.06,6,26.8,26.8,0,0,1-9.52,1.88,40,40,0,0,1-11.05-1.67,47.81,47.81,0,0,1-8.05-3.41Z" transform="translate(185.06 53.28)"/><path class="cls-23" d="M574.52,1408.51l-8.18,24.78,1.17.39q5.57,1.83,9.28-1t6.73-9.68l1.64.55-10.51,31.88-1.65-.54a25.89,25.89,0,0,0,.64-9.25,10.25,10.25,0,0,0-2.39-5.75,14.92,14.92,0,0,0-6-3.25l-5.65,17.15c-1.11,3.36-1.65,5.45-1.63,6.29a3.9,3.9,0,0,0,.93,2.35,7.46,7.46,0,0,0,3.39,1.92l3.5,1.15q8.21,2.7,14.45.38t11.08-9.69l1.59.53-9,18.49-50.61-16.7.55-1.67,1.94.65a8.35,8.35,0,0,0,4.42.41,4.25,4.25,0,0,0,2.43-1.59c.56-.61,1.34-2.45,2.35-5.5l13.21-40a34.46,34.46,0,0,0,1.46-5.15,4.51,4.51,0,0,0-.8-3,7.56,7.56,0,0,0-4.08-2.74l-1.94-.64.55-1.66,49,16.17-5.94,18-1.65-.54q.93-7-.39-10.63a13.69,13.69,0,0,0-5-6.34q-2.14-1.6-8.8-3.8Z" transform="translate(185.06 53.28)"/><path class="cls-23" d="M662,1468.78l-6.52,21.67-53.78-10.32.34-1.72,2,.39a8.38,8.38,0,0,0,4.43-.16,4.34,4.34,0,0,0,2.21-1.89q.71-1,1.61-5.76l8-41.42q.93-4.83.67-6.13a4.63,4.63,0,0,0-1.59-2.49,7.9,7.9,0,0,0-3.86-1.69l-2-.38.33-1.72,32.28,6.2-.32,1.72-2.64-.51a8.38,8.38,0,0,0-4.43.16,4.49,4.49,0,0,0-2.26,1.88q-.71,1-1.61,5.76l-7.71,40.12c-.61,3.22-.83,5.3-.64,6.25a3.66,3.66,0,0,0,1.72,2.38,20.81,20.81,0,0,0,5.32,1.46l5.05,1a16.78,16.78,0,0,0,8.38-.22,15.52,15.52,0,0,0,6.63-4.5,47,47,0,0,0,6.6-10.39Z" transform="translate(185.06 53.28)"/><path class="cls-23" d="M746.92,1433l30.61,39.62L777.4,1445c0-3.85-.56-6.44-1.63-7.8q-2.19-2.73-7.33-2.61v-1.75l20.37-.1v1.75a15.07,15.07,0,0,0-5.25,1.38,5.4,5.4,0,0,0-2.07,2.7,18.8,18.8,0,0,0-.72,6.41l.25,53.38h-1.55l-42-53.18.19,40.76q0,5.52,2.47,7.46a8.72,8.72,0,0,0,5.58,1.91h1.46v1.75l-21.88.1v-1.74q5.08-.07,7.08-2.21c1.32-1.43,2-3.85,2-7.25l-.21-45.25-1.33-1.7a12.26,12.26,0,0,0-3.47-3.34,10,10,0,0,0-4.32-.87v-1.75Z" transform="translate(185.06 53.28)"/><path class="cls-23" d="M829.1,1430.42q-8.4,1.08-11.62,10.56-2.62,7.77-.86,21.46,2.1,16.29,8.6,23.36a13.67,13.67,0,0,0,18.89.71q3.58-3.51,4.95-10.39t0-17.47q-1.62-12.62-4.68-18.58c-2-4-4.34-6.68-6.89-8.11a13.38,13.38,0,0,0-8.38-1.54Zm-.93-2.93q14.54-2.45,24.89,5.8t12.17,22.42a35.17,35.17,0,0,1-4.07,22.17q-7.45,13.35-23.92,15.47t-27-8.34a34.86,34.86,0,0,1-9.94-20.89q-1.81-14.16,6.23-24.8A29.14,29.14,0,0,1,828.17,1427.49Z" transform="translate(185.06 53.28)"/><path class="cls-23" d="M922.47,1407.73l4.57,16.74-1.58.43q-3-5.42-5.39-7.48a12.58,12.58,0,0,0-5.8-2.75c-1.26-.24-3.28,0-6.06.77l-4.42,1.21,13,47.72c.87,3.16,1.57,5.09,2.13,5.79a4.81,4.81,0,0,0,2.54,1.54,8.08,8.08,0,0,0,4.25-.21l2-.54.46,1.69-31.15,8.5-.46-1.69,2-.54a8.23,8.23,0,0,0,3.9-2.1,4.41,4.41,0,0,0,1.2-2.68q.18-1.22-1.09-5.87l-13-47.72-4.3,1.17q-6,1.65-8,5-2.81,4.74-2,11.86l-1.66.45L869,1422.31Z" transform="translate(185.06 53.28)"/><path class="cls-23" d="M971.49,1433.41l-17-16.79-.16,24,17.19-7.23Zm2.78,2.63-20.08,8.44,0,6.76a14.13,14.13,0,0,0,.82,5.24,4.34,4.34,0,0,0,3.47,2.86c1,.15,3-.29,6-1.3l.68,1.61-18.9,7.95-.68-1.62a9,9,0,0,0,3.92-4.75q1.07-3,1.11-11l.51-55.72.8-.33,40.87,39.85q5.83,5.65,8.47,6.65a7,7,0,0,0,4.68-.12l.68,1.61-27.5,11.56-.68-1.61,1.13-.48c2.21-.93,3.63-1.89,4.25-2.91a2.52,2.52,0,0,0,.08-2.39,6.12,6.12,0,0,0-.92-1.51c-.17-.24-1-1.15-2.64-2.74Z" transform="translate(185.06 53.28)"/><path class="cls-23" d="M1006.51,1372.16l14.8,23.87,2.2-1.37c3.59-2.22,6-4.22,7.41-6a9.58,9.58,0,0,0,1.9-6.3,16.48,16.48,0,0,0-2.8-7.92q-3.86-6.23-8.51-7.46c-3.09-.82-6.72,0-10.86,2.62l-4.14,2.57Zm16.57,26.72,9.47,15.27c1.83,2.95,3.15,4.69,4,5.24a4.55,4.55,0,0,0,3,.69c1.16-.09,2.94-.87,5.33-2.36l.93,1.49-26.82,16.63-.93-1.49q3.63-2.25,4.49-3.76a4.72,4.72,0,0,0,.69-2.95c-.12-1-1.09-2.92-2.92-5.87l-21.93-35.36q-2.75-4.42-4-5.25a4.67,4.67,0,0,0-3-.69q-1.74.13-5.33,2.36l-.92-1.48,24.34-15.1q9.51-5.89,14.76-7.26a16.54,16.54,0,0,1,18.45,7.48,15.41,15.41,0,0,1,2,12.55,19.89,19.89,0,0,1-5.14,8.37l24,10.63a32.92,32.92,0,0,0,6.28,2.28,7.58,7.58,0,0,0,4.52-.91l.92,1.49-16.5,10.23-32.29-14.37Z" transform="translate(185.06 53.28)"/><path class="cls-23" d="M1107.44,1372.23l1.1,1.37-25.15,20.18-1.09-1.37,1.59-1.28a8.17,8.17,0,0,0,2.75-3.47,4.26,4.26,0,0,0,0-2.91c-.22-.8-1.33-2.46-3.34-5l-26.41-32.89c-2.05-2.56-3.46-4.05-4.23-4.49a4.65,4.65,0,0,0-2.93-.41,8,8,0,0,0-3.78,1.86l-1.6,1.28-1.1-1.37,25.15-20.17,1.09,1.36-1.59,1.28a8.26,8.26,0,0,0-2.75,3.48,4.42,4.42,0,0,0,0,2.93c.21.81,1.32,2.46,3.34,5l26.4,32.89c2.05,2.56,3.47,4,4.25,4.46a4.73,4.73,0,0,0,3,.4,7.77,7.77,0,0,0,3.78-1.86Z" transform="translate(185.06 53.28)"/><path class="cls-23" d="M1128.34,1325l-22.16-9,9,22.25,13.11-13.26Zm3.57,1.37-15.31,15.48,2.61,6.24a14.53,14.53,0,0,0,2.77,4.53,4.34,4.34,0,0,0,4.3,1.3c.93-.23,2.61-1.39,5-3.5l1.25,1.23-14.42,14.58-1.25-1.23a9,9,0,0,0,1.81-5.89q-.17-3.16-3.17-10.55l-20.87-51.66.61-.61,53,21.16q7.56,3,10.37,2.9a7,7,0,0,0,4.28-1.91l1.25,1.23-21,21.21-1.25-1.23.87-.87q2.52-2.55,2.81-4.32a2.57,2.57,0,0,0-.85-2.24,5.91,5.91,0,0,0-1.43-1c-.25-.15-1.41-.66-3.48-1.52Z" transform="translate(185.06 53.28)"/><path class="cls-23" d="M1138.12,1255l39.93,30.14a18.35,18.35,0,0,0,4.11,2.65,2.69,2.69,0,0,0,1.83-.16,7.07,7.07,0,0,0,2.71-2.4q4.58-6.06,2.68-12.5-2.52-8.75-14.75-18-9.86-7.42-18-8.9-6.39-1.11-10.85,1.33-3.13,1.74-7.68,7.82Zm34.11,55.2-1.4-1.05,1.24-1.63a8,8,0,0,0,1.78-3.81,5.29,5.29,0,0,0-.63-3.13c-.37-.62-1.87-1.92-4.51-3.92l-33.66-25.41q-3.93-3-5.22-3.3a4.62,4.62,0,0,0-2.93.32,7.79,7.79,0,0,0-3.22,2.73l-1.23,1.63-1.4-1.06,16.64-22q6.64-8.82,13.2-12.31a26.67,26.67,0,0,1,16.76-3,38.27,38.27,0,0,1,25.25,16.35,28.83,28.83,0,0,1,4.25,10,26.6,26.6,0,0,1,.14,9.7,39.6,39.6,0,0,1-3.62,10.57,48.36,48.36,0,0,1-4.81,7.31Z" transform="translate(185.06 53.28)"/><path class="cls-23" d="M1182,1186.91q-4.24,7.32,1.33,15.64,4.57,6.81,16.53,13.72,14.21,8.22,23.77,7.35a12.46,12.46,0,0,0,10.17-6.61,12.67,12.67,0,0,0,1.88-8c-.42-3.32-2.16-6.73-5.25-10.24s-7.72-7-13.88-10.61q-11-6.37-17.62-7.56t-10.62.55a13.28,13.28,0,0,0-6.31,5.72Zm-2.89-1q6.89-13,19.72-16.25t25.2,4a35,35,0,0,1,15.14,16.7q6.09,14-2.23,28.39t-23.05,16.4a34.86,34.86,0,0,1-22.62-4.79q-12.36-7.15-15.93-20A29.11,29.11,0,0,1,1179.09,1185.87Z" transform="translate(185.06 53.28)"/><path class="cls-23" d="M1240.47,1044.36l21,7.38-.58,1.67q-8.86-1-15,2.61a18.6,18.6,0,0,0-8.48,10.13,17.74,17.74,0,0,0-.26,11.14,19.94,19.94,0,0,0,6.18,9.65,42.2,42.2,0,0,0,14,8,54.94,54.94,0,0,0,15.48,3.23q7.35.38,12.25-2.63t7.25-9.7a22,22,0,0,0,1-10.93q-.9-5.45-5.22-12.66l5.21,1.83a33.73,33.73,0,0,1,4.12,12.9,31.63,31.63,0,0,1-2,13.21,36.59,36.59,0,0,1-9.7,15.18,28.5,28.5,0,0,1-15.08,7.23,34.12,34.12,0,0,1-16.86-1.52,35.1,35.1,0,0,1-14.88-10.13,33.41,33.41,0,0,1-6.66-33.22,36.51,36.51,0,0,1,7.33-12c2-2.26,3.12-3.74,3.37-4.46a3.41,3.41,0,0,0-.21-2.75,6.22,6.22,0,0,0-2.87-2.47Z" transform="translate(185.06 53.28)"/><path class="cls-23" d="M1254.51,1003.12q-1.82,8.26,6,14.49,6.43,5.1,19.93,8.05,16,3.51,24.88-.23a12.48,12.48,0,0,0,7.67-9.4,12.61,12.61,0,0,0-.63-8.14q-2.1-4.56-8.12-8.16t-16.45-5.89q-12.42-2.72-19.08-1.85t-9.94,3.76a13.24,13.24,0,0,0-4.28,7.37Zm-3.08-.11q2.61-14.52,13.86-21.48t25.2-3.9a35,35,0,0,1,19.5,11.3q10.07,11.52,6.52,27.73t-17,22.63a34.76,34.76,0,0,1-23,2.31q-14-3.06-21.26-14.22A29.15,29.15,0,0,1,1251.43,1003Z" transform="translate(185.06 53.28)"/><path class="cls-23" d="M1294.45,908.56l22.5,2.32v54.75h-1.74v-2a8.27,8.27,0,0,0-1-4.32,4.24,4.24,0,0,0-2.27-1.82c-.75-.34-2.74-.5-6-.5H1263.8c-3.27,0-5.32.16-6.14.5a4.58,4.58,0,0,0-2.15,2,7.88,7.88,0,0,0-.93,4.12v2h-1.75V932.76h1.75v2.68a8.37,8.37,0,0,0,1,4.32,4.56,4.56,0,0,0,2.28,1.86c.75.34,2.74.5,6,.5h40.86q4.92,0,6.26-.54a3.7,3.7,0,0,0,2-2.14,20.52,20.52,0,0,0,.43-5.5V928.8a16.85,16.85,0,0,0-1.8-8.19,15.58,15.58,0,0,0-5.67-5.66,47,47,0,0,0-11.44-4.52Z" transform="translate(185.06 53.28)"/><path class="cls-23" d="M1255,864.05q0,8.46,9,12.87,7.36,3.6,21.18,3.59,16.41,0,24.26-5.54a13.7,13.7,0,0,0,3.12-18.65q-3-4-9.67-6.23t-17.33-2.23q-12.72,0-19,2.28t-8.92,5.79a13.35,13.35,0,0,0-2.6,8.12Zm-3,.55q-.57-14.75,8.94-24t23.79-9.2a35.1,35.1,0,0,1,21.46,6.86q12.3,9.11,12.3,25.7t-11.73,25.74a34.82,34.82,0,0,1-22,7.18q-14.27,0-23.8-9.35A29.09,29.09,0,0,1,1251.93,864.6Z" transform="translate(185.06 53.28)"/><path class="cls-23" d="M1295.1,779l-42.27-16.74v-25.1h1.75v2a8.52,8.52,0,0,0,1,4.37,4.64,4.64,0,0,0,2.23,1.81c.75.34,2.73.5,5.91.5H1306c3.28,0,5.33-.16,6.15-.5a4.63,4.63,0,0,0,2.15-2,8.09,8.09,0,0,0,.92-4.14v-2H1317v32.19h-1.74v-2a8.37,8.37,0,0,0-1-4.36,4.58,4.58,0,0,0-2.27-1.82q-1.12-.5-6-.5h-47.52L1317,784.35v1.09l-58.07,24H1304a41.58,41.58,0,0,0,5.82-.23,6.69,6.69,0,0,0,3.85-2.57c1-1.31,1.49-3.38,1.49-6.2H1317v21.1h-1.74v-.64a9.65,9.65,0,0,0-.69-3.82,6.16,6.16,0,0,0-2-2.69,9.2,9.2,0,0,0-3.45-1.4c-.34-.06-1.95-.09-4.82-.09h-40.57c-3.25,0-5.27.16-6.08.49a4.7,4.7,0,0,0-2.12,2.05,8,8,0,0,0-.93,4.14v2h-1.75v-25.2Z" transform="translate(185.06 53.28)"/><path class="cls-23" d="M1285.37,706h20.57l2.36,0a5.36,5.36,0,0,0,3.85-1.25,4.91,4.91,0,0,0,1.3-3.71,13.77,13.77,0,0,0-1.67-6.71,11.34,11.34,0,0,0-4.87-4.7,15.27,15.27,0,0,0-7.12-1.64,16.22,16.22,0,0,0-8.06,2,10.9,10.9,0,0,0-5,5.5c-1,2.34-1.4,5.82-1.37,10.46Zm-3.69,0q0-6.45-1.52-9.53a10.92,10.92,0,0,0-4.25-4.7,15.8,15.8,0,0,0-14,0,10.3,10.3,0,0,0-4.13,4.61c-1,2-1.4,5.22-1.37,9.64Zm1.27-16.55q2.13-8.77,5.16-12.33a13.94,13.94,0,0,1,11.16-5.09,15,15,0,0,1,12,5.6q5.73,6.85,5.72,20v31.33h-1.74q0-4.27-.83-5.8a4.75,4.75,0,0,0-2.16-2.14c-.88-.4-3.06-.61-6.52-.61h-41.61c-3.47,0-5.65.21-6.55.61a4.57,4.57,0,0,0-2.15,2.17q-.81,1.54-.81,5.77h-1.75V699.34q0-10.61,2-15a15.81,15.81,0,0,1,5.87-7,14.9,14.9,0,0,1,8.3-2.54,12,12,0,0,1,8.25,3.22Q1280.82,681.28,1283,689.42Z" transform="translate(185.06 53.28)"/><path class="cls-23" d="M1315.21,630H1317v32.24h-1.74v-2a8.27,8.27,0,0,0-1-4.32,4.24,4.24,0,0,0-2.27-1.82c-.75-.34-2.74-.5-6-.5H1263.8c-3.27,0-5.32.16-6.14.5a4.63,4.63,0,0,0-2.15,2,7.88,7.88,0,0,0-.93,4.12v2h-1.75V630h1.75v2.05a8.37,8.37,0,0,0,1,4.32,4.51,4.51,0,0,0,2.28,1.86c.75.34,2.74.5,6,.5H1306q4.92,0,6.15-.51a4.92,4.92,0,0,0,2.15-2,8,8,0,0,0,.92-4.12Z" transform="translate(185.06 53.28)"/><path class="cls-23" d="M1295.2,586l-22.08,9.19,22.08,9.46V586Zm3.5-1.54v21.78l6.24,2.59a14.35,14.35,0,0,0,5.16,1.28,4.32,4.32,0,0,0,4-2.1c.5-.82.88-2.83,1.13-6.05H1317v20.51h-1.74a9.06,9.06,0,0,0-2.87-5.45c-1.56-1.42-4.78-3.19-9.67-5.28l-51.16-22.05v-.87l52.58-22.24q7.47-3.18,9.41-5.23a6.91,6.91,0,0,0,1.7-4.36H1317v29.83h-1.74v-1.22q0-3.6-1-5a2.55,2.55,0,0,0-2.17-1,6.08,6.08,0,0,0-1.75.28c-.28.06-1.47.52-3.55,1.36Z" transform="translate(185.06 53.28)"/><path class="cls-23" d="M1252.83,528.09l39.77-30.42H1265q-5.76,0-7.8,1.59c-1.83,1.45-2.71,3.9-2.65,7.32h-1.75V486.21h1.75a15.09,15.09,0,0,0,1.35,5.25,5.35,5.35,0,0,0,2.69,2.09,19.14,19.14,0,0,0,6.41.75h53.39v1.55L1265,537.55h40.76q5.54,0,7.48-2.43a8.7,8.7,0,0,0,1.93-5.57v-1.46H1317V550h-1.74c0-3.39-.76-5.75-2.18-7.09s-3.83-2-7.24-2h-45.25l-1.7,1.32a12.25,12.25,0,0,0-3.36,3.46,10.2,10.2,0,0,0-.9,4.31h-1.75Z" transform="translate(185.06 53.28)"/><path class="cls-23" d="M1255,442.79q0,8.46,9,12.87,7.36,3.58,21.18,3.59,16.41,0,24.26-5.55a13.69,13.69,0,0,0,3.12-18.64q-3-4-9.67-6.23t-17.33-2.23q-12.72,0-19,2.27t-8.92,5.8a13.35,13.35,0,0,0-2.6,8.12Zm-3,.54q-.57-14.73,8.94-23.94t23.79-9.21a35,35,0,0,1,21.46,6.87q12.3,9.09,12.3,25.69t-11.73,25.74a34.82,34.82,0,0,1-22,7.19q-14.27,0-23.8-9.35A29.1,29.1,0,0,1,1251.93,443.33Z" transform="translate(185.06 53.28)"/><path class="cls-24" d="M1175,836.5c1.28,4,8.32,5.83,8.32,5.83l7.05,3.9" transform="translate(185.06 53.28)"/><path class="cls-24" d="M1078.77,995.66s78.58,45.93,95.14,66.4" transform="translate(185.06 53.28)"/><path class="cls-16" d="M1239.18,341.66a14.87,14.87,0,0,1-1.79-.1l-1.14.1a13.31,13.31,0,0,1-6.49-1v3.75l51.42,29.43,51.2-29.82v-2.39Z" transform="translate(185.06 53.28)"/></g></g></svg>