<svg version="1.1" id="Capa_1" xmlns="http://www.w3.org/2000/svg" x="0" y="0" viewBox="0 0 1125.32 458.56" xml:space="preserve">
  <style>
    .st0
    .st1 {
      opacity:.25;
      fill:#eaeaea;
      enable-background:new
    }
    .st1 {
      opacity:.2
    }
    .st2 {
      fill:none;
      stroke:#eaeaea;
      stroke-width:.5;
      stroke-miterlimit:10
    }

    .opacity-rec {
      opacity: .25;
      animation: opacity 1.5s infinite;
    }

     @keyframes opacity {
      0% {
        opacity: 0.05;
      }

      50% {
        opacity: 0.1;
      }

      100% {
        opacity: 0.05;
      }
    }
    .st2,
    .opacity-bg {
      animation: opacity-bg 1.5s infinite;
    }

    @keyframes opacity-bg {
      0% {
        opacity: 0.05;
      }

      50% {
        opacity: 0.1;
      }

      100% {
        opacity: 0.05;
      }
    }
  </style>
  <path class="st0 opacity-rec" d="M935.48 418.16h148.13v13.12H935.48zM492.94 421.08h139.45v13.12H492.94zM421.33 421.08h51.26v13.12h-51.26zM652.74 421.08H704v13.12h-51.26z"/>
  <g>
    <path class="st1 opacity-bg" d="M18.07 335.22h1089.19v35.8H18.07zM18.07 48.82h1089.19v35.8H18.07z"/>
    <path class="st0 opacity-rec" d="M35.09 24.36h86.73v13.12H35.09zM142.17 24.36h272.57v13.12H142.17zM506.7 24.36h139.45v13.12H506.7zM667.03 24.36h247.58v13.12H667.03zM935.48 24.36h148.13v13.12H935.48zM435.09 24.36h51.26v13.12h-51.26zM35.09 60.16h86.73v13.12H35.09zM142.17 60.16h272.57v13.12H142.17zM506.7 60.16h139.45v13.12H506.7zM667.03 60.16h247.58v13.12H667.03zM935.48 60.16h148.13v13.12H935.48zM435.09 60.16h51.26v13.12h-51.26z"/>
    <path class="st2" d="M18.07 48.82h1089.19M18.07 84.62h1089.19M18.07 156.22h1089.19M18.07 227.82h1089.19M18.07 299.42h1089.19"/>
    <path class="st0 opacity-rec" d="M35.09 95.96h86.73v13.12H35.09zM142.17 95.96h272.57v13.12H142.17zM506.7 95.96h139.45v13.12H506.7zM667.03 95.96h247.58v13.12H667.03zM935.48 95.96h148.13v13.12H935.48zM435.09 95.96h51.26v13.12h-51.26z"/>
    <path class="st2" d="M18.07 120.42h1089.19"/>
    <path class="st1 opacity-bg" d="M18.07 120.42h1089.19v35.8H18.07z"/>
    <path class="st0 opacity-rec" d="M35.09 131.76h86.73v13.12H35.09zM142.17 131.76h272.57v13.12H142.17zM506.7 131.76h139.45v13.12H506.7zM667.03 131.76h247.58v13.12H667.03zM935.48 131.76h148.13v13.12H935.48zM435.09 131.76h51.26v13.12h-51.26zM35.09 167.56h86.73v13.12H35.09zM142.17 167.56h272.57v13.12H142.17zM506.7 167.56h139.45v13.12H506.7zM667.03 167.56h247.58v13.12H667.03zM935.48 167.56h148.13v13.12H935.48zM435.09 167.56h51.26v13.12h-51.26z"/>
    <path class="st2" d="M18.07 192.02h1089.19"/>
    <path class="st1 opacity-bg" d="M18.07 192.02h1089.19v35.8H18.07z"/>
    <path class="st0 opacity-rec" d="M35.09 203.36h86.73v13.12H35.09zM142.17 203.36h272.57v13.12H142.17zM506.7 203.36h139.45v13.12H506.7zM667.03 203.36h247.58v13.12H667.03zM935.48 203.36h148.13v13.12H935.48zM435.09 203.36h51.26v13.12h-51.26zM35.09 239.16h86.73v13.12H35.09zM142.17 239.16h272.57v13.12H142.17zM506.7 239.16h139.45v13.12H506.7zM667.03 239.16h247.58v13.12H667.03zM935.48 239.16h148.13v13.12H935.48zM435.09 239.16h51.26v13.12h-51.26z"/>
    <path class="st2" d="M18.07 263.62h1089.19"/>
    <path class="st1 opacity-bg" d="M18.07 263.62h1089.19v35.8H18.07z"/>
    <path class="st0 opacity-rec" d="M35.09 274.96h86.73v13.12H35.09zM142.17 274.96h272.57v13.12H142.17zM506.7 274.96h139.45v13.12H506.7zM667.03 274.96h247.58v13.12H667.03zM935.48 274.96h148.13v13.12H935.48zM435.09 274.96h51.26v13.12h-51.26zM35.09 310.76h86.73v13.12H35.09zM142.17 310.76h272.57v13.12H142.17zM506.7 310.76h139.45v13.12H506.7zM667.03 310.76h247.58v13.12H667.03zM935.48 310.76h148.13v13.12H935.48zM435.09 310.76h51.26v13.12h-51.26z"/>
    <path class="st2" d="M18.07 335.22h1089.19M18.07 371.02h1089.19"/>
    <path class="st0 opacity-rec" d="M35.09 346.56h86.73v13.12H35.09zM142.17 346.56h272.57v13.12H142.17zM506.7 346.56h139.45v13.12H506.7zM667.03 346.56h247.58v13.12H667.03zM935.48 346.56h148.13v13.12H935.48zM435.09 346.56h51.26v13.12h-51.26zM35.09 382.36h86.73v13.12H35.09zM142.17 382.36h272.57v13.12H142.17zM506.7 382.36h139.45v13.12H506.7zM667.03 382.36h247.58v13.12H667.03zM935.48 382.36h148.13v13.12H935.48zM435.09 382.36h51.26v13.12h-51.26z"/>
    <path class="st2" d="M18.07 406.82h1089.19"/>
  </g>
</svg>
