<?xml version="1.0" encoding="utf-8"?>
<!-- Generator: Adobe Illustrator 25.0.1, SVG Export Plug-In . SVG Version: 6.00 Build 0)  -->
<svg version="1.1" id="Layer_1" xmlns="http://www.w3.org/2000/svg" xmlns:xlink="http://www.w3.org/1999/xlink" x="0px" y="0px"
	 viewBox="0 0 388.9 686.9" style="enable-background:new 0 0 388.9 686.9;" xml:space="preserve">
<style type="text/css">
	.st0{fill:none;stroke:#000000;stroke-width:8;stroke-linecap:round;stroke-miterlimit:10;}
	.st1{fill:#D02027;}
	.st2{fill:#FFFFFF;}
	.st3{fill:#868686;}
	.st4{fill:#808080;}
	.st5{fill-rule:evenodd;clip-rule:evenodd;fill:#F3A81F;}
	.st6{fill-rule:evenodd;clip-rule:evenodd;fill:#FCD1B6;}
	.st7{fill-rule:evenodd;clip-rule:evenodd;fill:#FFFFFF;}
	.st8{fill-rule:evenodd;clip-rule:evenodd;fill:#FDE4D5;}
	.st9{fill-rule:evenodd;clip-rule:evenodd;fill:#F2F1F1;}
	.st10{fill-rule:evenodd;clip-rule:evenodd;fill:#F0635A;}
	.st11{fill-rule:evenodd;clip-rule:evenodd;fill:#EF5144;}
</style>
<g>
	<path class="st0" d="M92,53.2c0,0-24.2,0.1-32.2,0c-25.2-0.2-65.2,22.7-22.3,66.7c57.9,59.3,9.1,59.6-19.9,41.9"/>
	<path class="st1" d="M351.3,189.5H107.5c-12.7,0-22.9-10.3-22.9-22.9V31.4c0-12.7,10.3-22.9,22.9-22.9h243.9
		c12.7,0,22.9,10.3,22.9,22.9v135.2C374.3,179.3,364,189.5,351.3,189.5"/>
	<polygon points="334.2,168.5 125.5,168.5 110.3,153.3 110.3,44.1 125.5,29.5 334.2,29.5 348.5,44.1 348.5,153.3 	"/>
	<path class="st2" d="M213.3,153.4h-69.1c-3.8,0-6.9-3.1-6.9-6.9V51.4c0-3.8,3.1-6.9,6.9-6.9h69.1c3.8,0,6.9,3.1,6.9,6.9v95.1
		C220.1,150.3,217,153.4,213.3,153.4"/>
	<g>
		<path class="st3" d="M250.8,55.1c0,2.4-1.9,4.3-4.3,4.3c-2.4,0-4.3-1.9-4.3-4.3c0-2.4,1.9-4.3,4.3-4.3
			C248.9,50.8,250.8,52.7,250.8,55.1"/>
		<path class="st3" d="M277.6,55.1c0,2.4-1.9,4.3-4.3,4.3c-2.4,0-4.3-1.9-4.3-4.3c0-2.4,1.9-4.3,4.3-4.3
			C275.7,50.8,277.6,52.7,277.6,55.1"/>
		<path class="st3" d="M304.5,55.1c0,2.4-1.9,4.3-4.3,4.3c-2.4,0-4.3-1.9-4.3-4.3c0-2.4,1.9-4.3,4.3-4.3
			C302.5,50.8,304.5,52.7,304.5,55.1"/>
		<path class="st3" d="M331.3,55.1c0,2.4-1.9,4.3-4.3,4.3c-2.4,0-4.3-1.9-4.3-4.3c0-2.4,1.9-4.3,4.3-4.3
			C329.3,50.8,331.3,52.7,331.3,55.1"/>
		<path class="st3" d="M250.8,84.4c0,2.4-1.9,4.3-4.3,4.3c-2.4,0-4.3-1.9-4.3-4.3c0-2.4,1.9-4.3,4.3-4.3
			C248.9,80.1,250.8,82,250.8,84.4"/>
		<path class="st3" d="M277.6,84.4c0,2.4-1.9,4.3-4.3,4.3c-2.4,0-4.3-1.9-4.3-4.3c0-2.4,1.9-4.3,4.3-4.3
			C275.7,80.1,277.6,82,277.6,84.4"/>
		<path class="st3" d="M304.5,84.4c0,2.4-1.9,4.3-4.3,4.3c-2.4,0-4.3-1.9-4.3-4.3c0-2.4,1.9-4.3,4.3-4.3
			C302.5,80.1,304.5,82,304.5,84.4"/>
		<path class="st3" d="M331.3,84.4c0,2.4-1.9,4.3-4.3,4.3c-2.4,0-4.3-1.9-4.3-4.3c0-2.4,1.9-4.3,4.3-4.3
			C329.3,80.1,331.3,82,331.3,84.4"/>
		<path class="st3" d="M250.8,113.6c0,2.4-1.9,4.3-4.3,4.3c-2.4,0-4.3-1.9-4.3-4.3c0-2.4,1.9-4.3,4.3-4.3
			C248.9,109.3,250.8,111.2,250.8,113.6"/>
		<path class="st3" d="M277.6,113.6c0,2.4-1.9,4.3-4.3,4.3c-2.4,0-4.3-1.9-4.3-4.3c0-2.4,1.9-4.3,4.3-4.3
			C275.7,109.3,277.6,111.2,277.6,113.6"/>
		<path class="st3" d="M304.5,113.6c0,2.4-1.9,4.3-4.3,4.3c-2.4,0-4.3-1.9-4.3-4.3c0-2.4,1.9-4.3,4.3-4.3
			C302.5,109.3,304.5,111.2,304.5,113.6"/>
		<path class="st3" d="M331.3,113.6c0,2.4-1.9,4.3-4.3,4.3c-2.4,0-4.3-1.9-4.3-4.3c0-2.4,1.9-4.3,4.3-4.3
			C329.3,109.3,331.3,111.2,331.3,113.6"/>
		<path class="st3" d="M250.8,142.8c0,2.4-1.9,4.3-4.3,4.3c-2.4,0-4.3-1.9-4.3-4.3c0-2.4,1.9-4.3,4.3-4.3
			C248.9,138.5,250.8,140.4,250.8,142.8"/>
		<path class="st3" d="M277.6,142.8c0,2.4-1.9,4.3-4.3,4.3c-2.4,0-4.3-1.9-4.3-4.3c0-2.4,1.9-4.3,4.3-4.3
			C275.7,138.5,277.6,140.4,277.6,142.8"/>
		<path class="st3" d="M304.5,142.8c0,2.4-1.9,4.3-4.3,4.3c-2.4,0-4.3-1.9-4.3-4.3c0-2.4,1.9-4.3,4.3-4.3
			C302.5,138.5,304.5,140.4,304.5,142.8"/>
		<path class="st3" d="M331.3,142.8c0,2.4-1.9,4.3-4.3,4.3c-2.4,0-4.3-1.9-4.3-4.3c0-2.4,1.9-4.3,4.3-4.3
			C329.3,138.5,331.3,140.4,331.3,142.8"/>
	</g>
	<rect x="157.8" y="44.6" class="st4" width="20.9" height="108.9"/>
	<path class="st3" d="M137.3,28.7c6.9-5.3,13.8-8,20.7-9.9c6.9-1.9,13.8-2.7,20.7-2.7c6.9,0,13.8,0.9,20.7,2.7
		c6.9,2,13.8,4.7,20.7,9.9v1.5l-10.4,0.4l-10.4,0.1l-20.7,0.2L158,30.7l-10.4-0.1l-10.4-0.4V28.7z"/>
</g>
<path class="st5" d="M90.9,281.5l27,137.2c3.5,17.7,34.2,81.2,52.1,79.1c17.9-2,18.4-56.9,14.5-74.5l-24.9-95.8
	C145.3,272.6,109.9,277.2,90.9,281.5"/>
<polygon class="st6" points="344.2,517.3 344.7,653.3 178.9,653.3 177.3,651.5 176.8,532.1 "/>
<path class="st6" d="M92.4,288.3l25.5,130.4c3.5,17.7,32.4,97.1,50.3,95.1c17.9-2,20.2-72.8,16.2-90.4l-24.9-95.8
	c-12.2-47.2-40-50.5-59.7-47.7C91.8,281,91,281.4,92.4,288.3"/>
<path class="st6" d="M205.1,83.3L205,246c15.7-22.4,54.7-9.5,57.9,19.6c12.9-25.2,50.6-16,58.7,9.8c15.7-21.2,54.2-6.8,54.1,23.2
	L375.3,436c-0.2,68.7-40.4,135.8-124.4,136.2c-63.2,0.3-105.2-62.8-105.7-106.5l-0.9-381.6C143.8,35.8,205.8,43.6,205.1,83.3"/>
<path class="st7" d="M323.5,323.6c0,0,0.6-27.2,1.1-51.4c-1.1,1-2,2.1-3,3.3c-0.7-2.3-1.7-4.4-2.8-6.4
	C320.7,293.7,323.5,323.6,323.5,323.6 M205,246c0,0.3,0.2,0,0.5-0.6c1.5-2,3.1-3.6,4.9-5c-0.6,27.1-2.6,73.4-2.6,73.4 M259.4,254.1
	c1.8,3.5,3,7.3,3.5,11.6c0.9-1.7,1.8-3.2,2.9-4.6c-0.3,26.8-0.7,59.9-0.7,59.9S261.2,279.8,259.4,254.1"/>
<path class="st8" d="M201.1,81.5l-0.1,14.7c-17.5,13.3-35,12.5-52.5,0l-0.2-14.1C147.9,43.8,201.7,50,201.1,81.5"/>
<path class="st8" d="M91.8,286.5l7.9,40c10.3-7.1,4.9-29.7-0.1-46.6C94,280.7,90.8,281.4,91.8,286.5"/>
<polygon class="st7" points="359.6,561.5 359.2,642.8 166.2,642.8 166.4,561.5 "/>
<polygon class="st9" points="359.6,561.5 359.4,642.8 263,642.8 263.1,561.5 "/>
<polygon class="st10" points="371.4,631.2 370.7,679.6 154.4,679.6 154.7,631.2 "/>
<polygon class="st11" points="371.4,631.2 371.1,679.6 263,679.6 263.2,631.2 "/>
</svg>
