<?xml version="1.0" encoding="utf-8"?>
<!-- Generator: Adobe Illustrator 25.0.1, SVG Export Plug-In . SVG Version: 6.00 Build 0)  -->
<svg version="1.1" id="Layer_1" xmlns="http://www.w3.org/2000/svg" xmlns:xlink="http://www.w3.org/1999/xlink" x="0px" y="0px"
	 viewBox="0 0 1280 800" style="enable-background:new 0 0 1280 800;" xml:space="preserve">
<style type="text/css">
	.st0{opacity:0.5;fill:#D6D6D6;enable-background:new    ;}
	.st1{opacity:0.7;fill:#D6D6D6;enable-background:new    ;}
</style>
<path class="st0" d="M1342.4,800c11.7-26,9.5-57.4-8.4-82.1c-26.7-36.7-78.1-44.9-114.9-18.2c-32.1,23.3-42.4,65.5-26.6,100.3
	H1342.4z"/>
<path class="st1" d="M1126.7,800c2.7-12.9,10.1-25,21.6-33.4c24.8-18,59.4-12.5,77.4,12.3c4.7,6.5,7.8,13.7,9.4,21.1h12.4
	c-1.7-9.9-5.6-19.6-11.9-28.3l0,0c-22-30.2-64.2-36.9-94.4-14.9c-14.8,10.8-24,26.5-26.9,43.2L1126.7,800L1126.7,800z"/>
<path class="st0" d="M176,800c23.4-63.6,3-137.6-54.6-179.4C51.9,570.1-45.4,585.5-95.9,655c-31.7,43.5-37.4,98-20.2,145H176z"/>
<path class="st1" d="M93.7,800c3.3-10.3,8.3-20.3,15-29.6c34-46.8,99.6-57.2,146.5-23.2c18.7,13.6,31.6,32.3,38.2,52.8h23.9
	c-7.2-27.7-23.6-53.2-48.6-71.4c-57.1-41.5-137.1-28.9-178.6,28.3c-9.7,13.4-16.5,28-20.4,43.1L93.7,800L93.7,800z"/>
</svg>
