<?xml version="1.0" encoding="utf-8"?>
<!-- Generator: Adobe Illustrator 25.0.1, SVG Export Plug-In . SVG Version: 6.00 Build 0)  -->
<svg version="1.1" id="Layer_1" xmlns="http://www.w3.org/2000/svg" xmlns:xlink="http://www.w3.org/1999/xlink" x="0px" y="0px"
	 viewBox="0 0 823.9 238.3" style="enable-background:new 0 0 823.9 238.3;" xml:space="preserve">
<style type="text/css">
	.st0{fill-rule:evenodd;clip-rule:evenodd;fill:#D0AD91;}
	.st1{fill-rule:evenodd;clip-rule:evenodd;fill:#FCD1B6;}
	.st2{fill-rule:evenodd;clip-rule:evenodd;fill:#FFFFFF;}
	.st3{fill-rule:evenodd;clip-rule:evenodd;fill:#F0635A;}
	.st4{fill-rule:evenodd;clip-rule:evenodd;fill:#EF5144;}
	.st5{fill-rule:evenodd;clip-rule:evenodd;fill:#F2F1F1;}
	.st6{fill:#2E3031;}
	.st7{fill:#D02027;}
	.st8{fill:#1E3468;}
	.st9{fill:none;stroke:#000000;stroke-width:0.409;stroke-miterlimit:10;}
	.st10{fill:none;stroke:#000000;stroke-width:7;stroke-linecap:round;stroke-miterlimit:10;}
</style>
<g>
	<path class="st0" d="M319,222.1L319,222.1c-12.6,1.2-24.3-8-25.1-20.6l-8.1-119.9c-0.8-12.6,8-23.9,20.5-25.1
		c12.6-1.2,23.8,8,25.1,20.5l8.1,119.9C340.4,209.6,331.5,220.9,319,222.1"/>
	<path class="st0" d="M379.9,188.9L379.9,188.9c-11.6,4.9-25.5-0.5-30.1-12.2L306.8,64.5c-4.5-11.8,0.6-25.2,12.2-30.1
		c11.6-4.9,25.1,0.6,30,12.2l43.1,112.2C396.7,170.7,391.5,184,379.9,188.9"/>
	<path class="st0" d="M429.6,155.4L429.6,155.4c-9.5,8.3-24.4,7.6-32.4-2.1l-76.4-92.7c-8-9.7-7.4-24,2.1-32.4
		c9.5-8.3,24-7.4,32.4,2.1l76.4,92.7C439.7,132.8,439.1,147.1,429.6,155.4"/>
	<path class="st1" d="M481.6,54.5c40.1-26.1,98.7,20.1,103.3,54.1c4.6,34-43.6,72.1-90.8,81.2c-47.3,9.1-69.8-29.7-71.7-47.7
		C420.3,124.2,441.5,80.6,481.6,54.5"/>
	<path class="st1" d="M519.5,54.9L519.5,54.9c1.4,12.5-7.8,26.5-20.3,25.3L346.4,65.5c-12.5-1.2-23.9-7.7-25.3-20.3
		c-1.4-12.5,7.7-23.9,20.3-25.3l152.8,14.7C506.7,35.8,518.1,42.4,519.5,54.9"/>
	<path class="st1" d="M240.5,40L240.5,40c1.3-14,13.9-24,27.8-23l110,6.4c14,0.8,24.4,13.8,23,27.8c-1.3,14-13.8,24.3-27.8,23
		l-110-6.4C249.5,67,239.2,54,240.5,40"/>
	<path class="st1" d="M114.2,59.5L114.2,59.5c-2-13.9,7.8-27.4,21.7-28.9L269,16.2c13.9-1.5,26.9,7.8,28.9,21.7
		c2,13.9-7.8,26.9-21.7,28.9L143.1,81.3C129.1,82.8,116.2,73.5,114.2,59.5"/>
	<path class="st1" d="M332.9,72.9c24.5,1.3,96.2,33.8,65.7,87.7c-30.5,53.9,107.5-26.3,107.5-26.3l-63.9-80.3
		C442.2,53.9,377.9-1.8,332.9,72.9"/>
	<polygon class="st1" points="491.7,36 499.4,152.3 571.2,158.3 576.2,41.5 	"/>
	
		<rect x="518.9" y="73" transform="matrix(5.119751e-02 -0.9987 0.9987 5.119751e-02 457.8131 692.404)" class="st2" width="148.9" height="64.6"/>
	<polygon class="st3" points="804.6,205.5 621,196.1 630.1,17.7 813.6,27.1 	"/>
	<polygon class="st4" points="813.6,27.1 630.1,17.7 625.6,106.9 809.1,116.3 	"/>
	<path class="st1" d="M494.2,155.7L494.2,155.7c4.2,14.2-3.7,30.3-18.2,33.5l-130.4,28.9c-14.4,3.2-29.3-4-33.5-18.2
		c-4.2-14.2,4-29.2,18.2-33.5l130.4-28.9C475.2,134.4,490,141.5,494.2,155.7"/>
	<polygon class="st5" points="629.5,32.6 564.9,29.3 561,103.6 625.6,107 	"/>
	<path class="st6" d="M223.2,99.6H81.5c-0.8,0-1.4-0.6-1.4-1.4V77c0-0.8,0.6-1.4,1.4-1.4h141.8c0.8,0,1.4,0.6,1.4,1.4v21.1
		C224.7,99,224,99.6,223.2,99.6"/>
	<path class="st7" d="M233,160H71.7c-3.5,0-6.3-2.8-6.3-6.3V87.5c0-3.5,2.8-6.3,6.3-6.3H233c3.5,0,6.3,2.8,6.3,6.3v66.2
		C239.3,157.2,236.5,160,233,160"/>
	<path class="st8" d="M80,81.2V68.5c0-2.2,1.8-3.9,3.9-3.9c2.2,0,3.9,1.8,3.9,3.9v12.7"/>
	<line class="st9" x1="65.4" y1="120.6" x2="239.3" y2="120.6"/>
	<path class="st10" d="M114,138.1c0,0-27.7,0-36.9,0c-52.5,0-102.9,25.6-31.4,29.7c94.6,5.3,45.6-17.1,12.3-17.1"/>
</g>
</svg>
