<?xml version="1.0" encoding="utf-8"?>
<!-- Generator: Adobe Illustrator 25.0.1, SVG Export Plug-In . SVG Version: 6.00 Build 0)  -->
<svg version="1.1" id="Layer_1" xmlns="http://www.w3.org/2000/svg" xmlns:xlink="http://www.w3.org/1999/xlink" x="0px" y="0px"
	 viewBox="0 0 539.9 280.9" style="enable-background:new 0 0 539.9 280.9;" xml:space="preserve">
<style type="text/css">
	.st0{fill:#272727;}
	.st1{fill:none;stroke:#000000;stroke-width:12;stroke-linecap:round;stroke-miterlimit:10;}
	.st2{fill:#D02027;}
	.st3{fill:#FFFFFF;}
	.st4{fill:#868686;}
	.st5{fill:#808080;}
</style>
<path class="st0" d="M355.4,108c0,3.4-2.8,6.1-6.1,6.1c-3.4,0-6.1-2.8-6.1-6.1c0-3.4,2.8-6.1,6.1-6.1
	C352.6,101.9,355.4,104.6,355.4,108"/>
<path class="st0" d="M393.6,108c0,3.4-2.8,6.1-6.1,6.1c-3.4,0-6.1-2.8-6.1-6.1c0-3.4,2.8-6.1,6.1-6.1
	C390.9,101.9,393.6,104.6,393.6,108"/>
<path class="st0" d="M431.8,108c0,3.4-2.8,6.1-6.1,6.1c-3.4,0-6.1-2.8-6.1-6.1c0-3.4,2.8-6.1,6.1-6.1
	C429.1,101.9,431.8,104.6,431.8,108"/>
<path class="st0" d="M470.1,108c0,3.4-2.8,6.1-6.1,6.1c-3.4,0-6.1-2.8-6.1-6.1c0-3.4,2.8-6.1,6.1-6.1
	C467.3,101.9,470.1,104.6,470.1,108"/>
<path class="st0" d="M355.4,143.6c0,3.4-2.8,6.1-6.1,6.1c-3.4,0-6.1-2.8-6.1-6.1c0-3.4,2.8-6.1,6.1-6.1
	C352.6,137.4,355.4,140.2,355.4,143.6"/>
<path class="st0" d="M393.6,143.6c0,3.4-2.8,6.1-6.1,6.1c-3.4,0-6.1-2.8-6.1-6.1c0-3.4,2.8-6.1,6.1-6.1
	C390.9,137.4,393.6,140.2,393.6,143.6"/>
<path class="st0" d="M431.8,143.6c0,3.4-2.8,6.1-6.1,6.1c-3.4,0-6.1-2.8-6.1-6.1c0-3.4,2.8-6.1,6.1-6.1
	C429.1,137.4,431.8,140.2,431.8,143.6"/>
<path class="st0" d="M470.1,143.6c0,3.4-2.8,6.1-6.1,6.1c-3.4,0-6.1-2.8-6.1-6.1c0-3.4,2.8-6.1,6.1-6.1
	C467.3,137.4,470.1,140.2,470.1,143.6"/>
<path class="st0" d="M355.4,179.1c0,3.4-2.8,6.1-6.1,6.1c-3.4,0-6.1-2.8-6.1-6.1c0-3.4,2.8-6.1,6.1-6.1
	C352.6,173,355.4,175.7,355.4,179.1"/>
<path class="st0" d="M393.6,179.1c0,3.4-2.8,6.1-6.1,6.1c-3.4,0-6.1-2.8-6.1-6.1c0-3.4,2.8-6.1,6.1-6.1
	C390.9,173,393.6,175.7,393.6,179.1"/>
<path class="st0" d="M431.8,179.1c0,3.4-2.8,6.1-6.1,6.1c-3.4,0-6.1-2.8-6.1-6.1c0-3.4,2.8-6.1,6.1-6.1
	C429.1,173,431.8,175.7,431.8,179.1"/>
<path class="st0" d="M470.1,179.1c0,3.4-2.8,6.1-6.1,6.1c-3.4,0-6.1-2.8-6.1-6.1c0-3.4,2.8-6.1,6.1-6.1
	C467.3,173,470.1,175.7,470.1,179.1"/>
<path class="st0" d="M355.4,214.6c0,3.4-2.8,6.1-6.1,6.1c-3.4,0-6.1-2.8-6.1-6.1c0-3.4,2.8-6.1,6.1-6.1
	C352.6,208.5,355.4,211.2,355.4,214.6"/>
<path class="st0" d="M393.6,214.6c0,3.4-2.8,6.1-6.1,6.1c-3.4,0-6.1-2.8-6.1-6.1c0-3.4,2.8-6.1,6.1-6.1
	C390.9,208.5,393.6,211.2,393.6,214.6"/>
<path class="st0" d="M431.8,214.6c0,3.4-2.8,6.1-6.1,6.1c-3.4,0-6.1-2.8-6.1-6.1c0-3.4,2.8-6.1,6.1-6.1
	C429.1,208.5,431.8,211.2,431.8,214.6"/>
<path class="st0" d="M470.1,214.6c0,3.4-2.8,6.1-6.1,6.1c-3.4,0-6.1-2.8-6.1-6.1c0-3.4,2.8-6.1,6.1-6.1
	C467.3,208.5,470.1,211.2,470.1,214.6"/>
<g>
	<path class="st1" d="M121.8,75.1c0,0-34.5,0.1-46,0c-36-0.3-93,32.4-31.8,95.1c82.5,84.6,12.9,85-28.3,59.8"/>
	<path class="st2" d="M491.6,269.6H143.8c-18,0-32.7-14.6-32.7-32.7V44c0-18,14.6-32.7,32.7-32.7h347.8c18,0,32.7,14.6,32.7,32.7
		v192.9C524.3,254.9,509.7,269.6,491.6,269.6"/>
	<polygon points="467.2,239.6 169.5,239.6 147.9,217.9 147.9,62.2 169.5,41.3 467.2,41.3 487.6,62.2 487.6,217.9 	"/>
	<path class="st3" d="M294.7,218.1h-98.6c-5.4,0-9.8-4.4-9.8-9.8V72.6c0-5.4,4.4-9.8,9.8-9.8h98.6c5.4,0,9.8,4.4,9.8,9.8v135.6
		C304.5,213.7,300.1,218.1,294.7,218.1"/>
	<g>
		<path class="st4" d="M348.3,77.9c0,3.4-2.8,6.1-6.1,6.1c-3.4,0-6.1-2.8-6.1-6.1c0-3.4,2.8-6.1,6.1-6.1
			C345.5,71.8,348.3,74.5,348.3,77.9"/>
		<path class="st4" d="M386.5,77.9c0,3.4-2.8,6.1-6.1,6.1c-3.4,0-6.1-2.8-6.1-6.1c0-3.4,2.8-6.1,6.1-6.1
			C383.8,71.8,386.5,74.5,386.5,77.9"/>
		<path class="st4" d="M424.7,77.9c0,3.4-2.8,6.1-6.1,6.1c-3.4,0-6.1-2.8-6.1-6.1c0-3.4,2.8-6.1,6.1-6.1
			C422,71.8,424.7,74.5,424.7,77.9"/>
		<path class="st4" d="M463,77.9c0,3.4-2.8,6.1-6.1,6.1c-3.4,0-6.1-2.8-6.1-6.1c0-3.4,2.8-6.1,6.1-6.1C460.2,71.8,463,74.5,463,77.9
			"/>
		<path class="st4" d="M348.3,119.6c0,3.4-2.8,6.1-6.1,6.1c-3.4,0-6.1-2.8-6.1-6.1c0-3.4,2.8-6.1,6.1-6.1
			C345.5,113.5,348.3,116.2,348.3,119.6"/>
		<path class="st4" d="M386.5,119.6c0,3.4-2.8,6.1-6.1,6.1c-3.4,0-6.1-2.8-6.1-6.1c0-3.4,2.8-6.1,6.1-6.1
			C383.8,113.5,386.5,116.2,386.5,119.6"/>
		<path class="st4" d="M424.7,119.6c0,3.4-2.8,6.1-6.1,6.1c-3.4,0-6.1-2.8-6.1-6.1c0-3.4,2.8-6.1,6.1-6.1
			C422,113.5,424.7,116.2,424.7,119.6"/>
		<path class="st4" d="M463,119.6c0,3.4-2.8,6.1-6.1,6.1c-3.4,0-6.1-2.8-6.1-6.1c0-3.4,2.8-6.1,6.1-6.1
			C460.2,113.5,463,116.2,463,119.6"/>
		<path class="st4" d="M348.3,161.3c0,3.4-2.8,6.1-6.1,6.1c-3.4,0-6.1-2.8-6.1-6.1c0-3.4,2.8-6.1,6.1-6.1
			C345.5,155.2,348.3,157.9,348.3,161.3"/>
		<path class="st4" d="M386.5,161.3c0,3.4-2.8,6.1-6.1,6.1c-3.4,0-6.1-2.8-6.1-6.1c0-3.4,2.8-6.1,6.1-6.1
			C383.8,155.2,386.5,157.9,386.5,161.3"/>
		<path class="st4" d="M424.7,161.3c0,3.4-2.8,6.1-6.1,6.1c-3.4,0-6.1-2.8-6.1-6.1c0-3.4,2.8-6.1,6.1-6.1
			C422,155.2,424.7,157.9,424.7,161.3"/>
		<path class="st4" d="M463,161.3c0,3.4-2.8,6.1-6.1,6.1c-3.4,0-6.1-2.8-6.1-6.1c0-3.4,2.8-6.1,6.1-6.1
			C460.2,155.2,463,157.9,463,161.3"/>
		<path class="st4" d="M348.3,203c0,3.4-2.8,6.1-6.1,6.1c-3.4,0-6.1-2.8-6.1-6.1c0-3.4,2.8-6.1,6.1-6.1
			C345.5,196.8,348.3,199.6,348.3,203"/>
		<path class="st4" d="M386.5,203c0,3.4-2.8,6.1-6.1,6.1c-3.4,0-6.1-2.8-6.1-6.1c0-3.4,2.8-6.1,6.1-6.1
			C383.8,196.8,386.5,199.6,386.5,203"/>
		<path class="st4" d="M424.7,203c0,3.4-2.8,6.1-6.1,6.1c-3.4,0-6.1-2.8-6.1-6.1c0-3.4,2.8-6.1,6.1-6.1
			C422,196.8,424.7,199.6,424.7,203"/>
		<path class="st4" d="M463,203c0,3.4-2.8,6.1-6.1,6.1c-3.4,0-6.1-2.8-6.1-6.1c0-3.4,2.8-6.1,6.1-6.1C460.2,196.8,463,199.6,463,203
			"/>
	</g>
	<rect x="215.6" y="62.8" class="st5" width="29.8" height="155.2"/>
	<path class="st4" d="M186.3,40.3c9.8-7.5,19.7-11.4,29.5-14.2c9.8-2.6,19.7-3.9,29.5-3.8c9.8,0,19.7,1.3,29.5,3.9
		c9.9,2.8,19.7,6.7,29.5,14.1v2.1l-14.8,0.5l-14.8,0.2l-29.5,0.4l-29.5-0.4l-14.8-0.2l-14.8-0.5V40.3z"/>
</g>
</svg>
